<?xml version="1.0" encoding="utf-8"?>
<!-- Generator: Adobe Illustrator 27.0.0, SVG Export Plug-In . SVG Version: 6.00 Build 0)  -->
<svg version="1.1" id="Layer_2_00000151528180038796586240000014368672818448920708_"
	 xmlns="http://www.w3.org/2000/svg" xmlns:xlink="http://www.w3.org/1999/xlink" x="0px" y="0px" viewBox="0 0 226.3 226.3"
	 style="enable-background:new 0 0 226.3 226.3;" xml:space="preserve">
<style type="text/css">
	.st0{fill:#FFFFA1;}
	.st1{fill:#F04F9B;}
	.st2{fill:#FCFFFF;}
	.st3{fill:#00D4D8;}
</style>
<g id="background">
	<g>
		<circle class="st0" cx="113.1" cy="113.1" r="113.1"/>
		<path class="st1" d="M186.2,76c-8-13.4-23.5-29.3-41.8-27.9c-12.3,0.9-23.1,7.9-31.5,17.6C104.5,55.9,93.7,49,81.4,48
			c-18.3-1.4-33.8,14.5-41.8,28c-12.3,20.6-5.5,43.7,9.5,61.5c16.8,19.9,40,35.2,63.1,48.5l0.2,0.8c0.2-0.1,0.4-0.2,0.6-0.3
			c0.2,0.1,0.4,0.2,0.6,0.3l0.2-0.8c23.1-13.3,46.3-28.6,63.1-48.5C191.8,119.7,198.6,96.6,186.2,76L186.2,76z"/>
		<g>
			<polygon class="st2" points="196.2,147.5 167.1,147.5 167.1,118.3 151.7,118.3 151.7,147.5 122.9,147.5 122.9,160.7 151.7,160.7 
				151.7,188.9 167.1,188.9 167.1,160.7 196.2,160.7 			"/>
			<path class="st3" d="M167,191.9h-15.3c-1.7,0-3-1.3-3-3v-25.2h-25.8c-1.7,0-3-1.3-3-3v-13.2c0-1.7,1.3-3,3-3h25.8v-26.2
				c0-1.7,1.3-3,3-3H167c1.7,0,3,1.3,3,3v26.2h26.1c1.7,0,3,1.3,3,3v13.2c0,1.7-1.3,3-3,3H170v25.2C170,190.6,168.7,191.9,167,191.9
				z M154.7,185.9h9.3v-25.2c0-1.7,1.3-3,3-3h26.1v-7.2H167c-1.7,0-3-1.3-3-3v-26.2h-9.3v26.2c0,1.7-1.3,3-3,3h-25.8v7.2h25.8
				c1.7,0,3,1.3,3,3V185.9z"/>
		</g>
	</g>
</g>
</svg>
