<?xml version="1.0" encoding="UTF-8"?>
<svg id="Layer_2" data-name="Layer 2" xmlns="http://www.w3.org/2000/svg" viewBox="0 0 226.26 226.26">
  <defs>
    <style>
      .cls-1 {
        fill: #ffffa1;
      }

      .cls-2 {
        fill: #e27fa3;
      }
    </style>
  </defs>
  <g id="background">
    <g>
      <circle class="cls-1" cx="113.13" cy="113.13" r="113.13"/>
      <path class="cls-2" d="M183.41,78.79c-8.01-13.42-23.51-29.33-41.82-27.94-12.33,.94-23.13,7.92-31.52,17.59-8.4-9.67-19.19-16.66-31.52-17.59-18.31-1.39-33.81,14.52-41.82,27.94-12.33,20.64-5.52,43.71,9.5,61.49,16.79,19.88,40.05,35.16,63.11,48.46l.19,.75c.18-.1,.36-.21,.55-.32,.18,.1,.36,.21,.55,.32l.19-.75c23.06-13.3,46.32-28.58,63.11-48.46,15.01-17.78,21.82-40.85,9.5-61.49Z"/>
    </g>
  </g>
</svg>