<?xml version="1.0" encoding="utf-8"?>
<!-- Generator: Adobe Illustrator 27.0.0, SVG Export Plug-In . SVG Version: 6.00 Build 0)  -->
<svg version="1.1" id="Layer_2_00000073685074997757247990000005053182434829192891_"
	 xmlns="http://www.w3.org/2000/svg" xmlns:xlink="http://www.w3.org/1999/xlink" x="0px" y="0px" viewBox="0 0 226.3 226.3"
	 style="enable-background:new 0 0 226.3 226.3;" xml:space="preserve">
<style type="text/css">
	.st0{fill:#FFFFA1;}
	.st1{fill:#F04F9B;}
</style>
<g id="background">
	<g>
		<circle class="st0" cx="113.1" cy="113.1" r="113.1"/>
		<path class="st1" d="M183.4,78.8c-8-13.4-23.5-29.3-41.8-27.9c-12.3,0.9-23.1,7.9-31.5,17.6c-8.4-9.7-19.2-16.7-31.5-17.6
			c-18.3-1.4-33.8,14.5-41.8,27.9c-12.3,20.6-5.5,43.7,9.5,61.5c16.8,19.9,40,35.2,63.1,48.5l0.2,0.8c0.2-0.1,0.4-0.2,0.6-0.3
			c0.2,0.1,0.4,0.2,0.6,0.3l0.2-0.8c23.1-13.3,46.3-28.6,63.1-48.5C188.9,122.5,195.8,99.4,183.4,78.8L183.4,78.8z"/>
	</g>
</g>
</svg>
