<?xml version="1.0" encoding="utf-8"?>
<!-- Generator: Adobe Illustrator 27.0.0, SVG Export Plug-In . SVG Version: 6.00 Build 0)  -->
<svg version="1.1" id="Layer_2_00000064337943971583845400000015440517303344643223_"
	 xmlns="http://www.w3.org/2000/svg" xmlns:xlink="http://www.w3.org/1999/xlink" x="0px" y="0px" viewBox="0 0 226.3 226.3"
	 style="enable-background:new 0 0 226.3 226.3;" xml:space="preserve">
<style type="text/css">
	.st0{fill:#FFFFA1;}
	.st1{fill:#95E0E8;}
</style>
<g id="background">
	<g>
		<circle class="st0" cx="113.1" cy="113.1" r="113.1"/>
		<path class="st1" d="M57.3,172.2c-1.5,0-3-0.5-4.1-1.6c-2.4-2.3-2.5-6.1-0.2-8.5l48.3-51L53,62.9c-2.3-2.3-2.3-6.1,0-8.5
			c2.3-2.3,6.1-2.3,8.5,0l52.3,52.3c2.3,2.3,2.3,6,0.1,8.4l-52.3,55.2C60.4,171.6,58.8,172.2,57.3,172.2z"/>
		<path class="st1" d="M116.7,172.2c-1.5,0-3-0.5-4.1-1.6c-2.4-2.3-2.5-6.1-0.2-8.5l48.3-51l-48.2-48.2c-2.3-2.3-2.3-6.1,0-8.5
			c2.3-2.3,6.1-2.3,8.5,0l52.3,52.3c2.3,2.3,2.3,6,0.1,8.4L121,170.3C119.9,171.6,118.3,172.2,116.7,172.2z"/>
	</g>
</g>
</svg>
