<?xml version="1.0" encoding="UTF-8"?>
<svg id="Layer_2" data-name="Layer 2" xmlns="http://www.w3.org/2000/svg" viewBox="0 0 44.18 38.43">
  <defs>
    <style>
      .cls-1 {
        fill: #ffffa1;
      }
    </style>
  </defs>
  <g id="background">
    <path class="cls-1" d="M42.41,7.76C40.19,4.05,35.89-.36,30.82,.02c-3.42,.26-6.41,2.19-8.73,4.87C19.76,2.22,16.77,.28,13.35,.02,8.28-.36,3.99,4.05,1.77,7.76-1.65,13.48,.24,19.87,4.4,24.8c4.65,5.51,11.1,9.74,17.48,13.42l.05,.21c.05-.03,.1-.06,.15-.09,.05,.03,.1,.06,.15,.09l.05-.21c6.39-3.68,12.83-7.92,17.48-13.42,4.16-4.93,6.05-11.32,2.63-17.03Z"/>
  </g>
</svg>