<?xml version="1.0" encoding="UTF-8"?>
<svg id="Layer_2" data-name="Layer 2" xmlns="http://www.w3.org/2000/svg" viewBox="0 0 811.53 810.69">
  <defs>
    <style>
      .cls-1 {
        fill: #fff;
      }

      .cls-2 {
        fill: #e2e2e2;
      }

      .cls-3 {
        fill: #95e0e8;
      }

      .cls-4 {
        fill: #b2b8c4;
      }

      .cls-5 {
        fill: #e27fa3;
      }

      .cls-6 {
        fill: #70838e;
      }

      .cls-7 {
        fill: #95a1b3;
      }

      .cls-8 {
        fill: #5f5c5d;
      }
    </style>
  </defs>
  <g id="background">
    <g>
      <path class="cls-3" d="M718.39,405.33c0,31.31-1.9,59.84-5.74,85.76-24.48,167.54-127.92,226.46-306.9,226.46-115.38,0-199.36-24.52-251.06-86.81-40.89-49.29-61.57-122.22-61.57-225.4,0-112.98,24.81-189.74,73.81-238.82,52.25-52.42,132.14-73.39,238.82-73.39,167.97,0,269.42,51.91,301.54,196.79,7.39,33.38,11.1,71.7,11.1,115.42Z"/>
      <ellipse class="cls-4" cx="542.55" cy="645.49" rx="101.78" ry="90.76"/>
      <g>
        <path class="cls-4" d="M538.87,50.92c-34.45,27.23-68.93,66.28-89.03,90.49-24.44,3.74-54.86,11.96-89.04,23.34-34.29,11.07-63.67,22.46-85.59,33.91-56.5-14.1-182.71-39.91-205.13,4.38-22.27,43.99,45.37,122.53,78.08,156.68-10.25,46.33-4.71,91.57,7.29,128.16,10.37,31.64,24.5,62.01,42.44,91.12,35.02,56.83,99.31,88.2,165.6,80.41,51.18-6.03,100.78-16.92,148.78-32.65,48-15.74,94.41-36.33,139.23-61.77,58.03-32.97,91.27-96.32,85.84-162.85-2.78-34.09-9.37-66.92-19.74-98.56-11.99-36.58-34.3-76.31-69.98-107.58,3.05-23.42,6.59-60.98,3.86-95.47-2.73-34.49-83.33-72.76-112.61-49.62Z"/>
        <g>
          <path class="cls-7" d="M402.19,176.19c17.17,52.37,15.84,99.8-2.89,105.94-18.77,6.15-47.92-31.28-65.09-83.65-2.35-7.18-4.36-14.25-5.99-21.13,21.77-8.25,43.86-15.49,66.3-21.69,2.76,6.51,5.33,13.4,7.67,20.54Z"/>
          <g>
            <path class="cls-7" d="M323.56,182.91c17.16,52.33,15.88,99.78-2.89,105.94-18.05,5.92-45.83-28.72-63.18-78.1,10.67-6.87,22.03-13,33.98-18.29,10.24-4.51,20.56-8.83,30.96-12.86,.41,1.11,.76,2.19,1.13,3.32Z"/>
            <path class="cls-7" d="M471.14,140.22c15.41,50.24,13.6,94.85-4.53,100.79-18.77,6.15-47.89-31.33-65.05-83.67-.37-1.12-.72-2.21-1.05-3.34,12.36-3.34,24.88-6.34,37.45-9.04,11.08-2.39,22.16-3.93,33.17-4.75Z"/>
          </g>
        </g>
        <path class="cls-6" d="M456.56,146.99l-13.45-11.15c22.38-26.99,56.22-64.82,90.33-91.78l10.83,13.71c-34.65,27.39-69.83,67.66-87.72,89.23Z"/>
        <path class="cls-1" d="M605.07,116.87s9.44,10.5,14.83,23.96c5.01,12.44,.53,24.65-8.17,31.99-28.9-17.04-61.31-28.09-95.12-32.06-1.98-6.99-1.31-14.71,2.63-21.65,15.82-27.88,39.73-60.19,64.74-58.44,43.56,3.08,21.09,56.2,21.09,56.2Z"/>
        <path class="cls-1" d="M135.57,270.8s-1.39,14.05,2.24,28.09c3.33,12.99,14.17,20.18,25.52,20.94,13.21-30.84,32.78-58.93,57.67-82.15-2.54-6.81-7.65-12.64-14.94-15.89-29.26-13.1-67.66-24.98-86.77-8.77-33.28,28.27,16.28,57.77,16.28,57.77Z"/>
        <g>
          <path class="cls-6" d="M746.05,401.44c-2.82-34.55-9.6-68.39-20.15-100.57-8.96-27.33-28.65-71.58-69.05-108.38,3.08-25.08,5.88-60.1,3.3-92.65l-17.42,1.38c2.1,26.58,.43,55.07-1.96,77.93-10.17-7.69-21.4-14.87-33.86-21.26-4.29-2.2-9.56-.5-11.76,3.79-2.2,4.29-.5,9.56,3.79,11.76,69.84,35.8,99.11,98.62,110.34,132.87,10.12,30.88,16.63,63.37,19.34,96.55,2.53,31.02-3.75,61.87-18.15,89.23-14.42,27.39-36.31,49.98-63.3,65.31-4.19,2.38-5.66,7.72-3.28,11.91,1.61,2.83,4.56,4.42,7.6,4.42,1.46,0,2.95-.37,4.31-1.14,29.9-16.99,54.15-42.01,70.13-72.37,15.95-30.3,22.9-64.46,20.1-98.79Z"/>
          <path class="cls-6" d="M517.55,131.97c-15.06-1.6-30.89-2.09-47.06-1.45-26.03,1.05-63.87,9.78-112.37,25.92-34.79,11.23-62.88,22.28-83.98,32.98-30.49-7.5-73.93-16.6-113.73-19.18-54.42-3.53-86.52,5.91-98.13,28.86-23.44,46.3,36.22,120.77,76.36,163.29-10.77,53.58-.44,100.9,8.52,128.23,10.55,32.19,25.12,63.47,43.31,92.98,18.07,29.32,43.9,52.73,74.69,67.71,24.51,11.92,51.22,18.03,78.3,18.03,7.01,0,14.04-.41,21.07-1.23,51.52-6.07,102.15-17.19,150.48-33.03,4.58-1.5,7.08-6.44,5.58-11.02-1.5-4.59-6.44-7.08-11.02-5.58-47.23,15.48-96.71,26.35-147.08,32.28-30.83,3.63-61.84-1.62-89.68-15.16-27.8-13.52-51.13-34.67-67.46-61.16-17.46-28.34-31.45-58.37-41.58-89.26-11.23-34.26-24.83-102.21,10.25-172.41,2.16-4.31,.41-9.56-3.91-11.72-4.32-2.16-9.56-.41-11.72,3.91-6.26,12.52-11.06,24.97-14.7,37.19-54.29-59.5-78.81-109.49-65.82-135.16,12.55-24.8,78.53-26.4,174.2-4.82-13.37,9.04-25.82,18.79-36.99,28.98-3.56,3.25-3.82,8.78-.57,12.34,1.72,1.89,4.09,2.85,6.46,2.85,2.1,0,4.21-.75,5.88-2.28,10.57-9.64,22.37-18.88,35.06-27.46,20.24-13.65,54.42-28.29,101.66-43.55,47.03-15.65,83.24-24.09,107.63-25.07,15.32-.61,30.3-.15,44.52,1.37,4.8,.51,9.1-2.96,9.61-7.76,.51-4.8-2.96-9.1-7.76-9.61Z"/>
        </g>
        <ellipse class="cls-8" cx="335.78" cy="449.53" rx="48.82" ry="55.37" transform="translate(-123.33 126.98) rotate(-18.15)"/>
        <path class="cls-8" d="M601.84,362.3c-9.53-29.06-38.02-45.8-63.64-37.4-25.62,8.4-38.67,38.76-29.14,67.82,9.53,29.06,38.02,45.8,63.64,37.4,25.62-8.4,38.67-38.76,29.14-67.82Z"/>
        <g>
          <g>
            <path class="cls-7" d="M608.78,427.07c-4.01,0-7.74-2.55-9.05-6.56-1.64-5,1.08-10.38,6.09-12.02l49.82-16.33c5-1.64,10.38,1.09,12.02,6.09,1.64,5-1.08,10.38-6.09,12.02l-49.82,16.33c-.99,.32-1.99,.48-2.97,.48Z"/>
            <path class="cls-7" d="M664.89,460.5c-.12,0-.24,0-.37,0l-45.71-1.73c-5.26-.2-9.36-4.62-9.16-9.88,.2-5.26,4.6-9.35,9.88-9.16l45.71,1.73c5.26,.2,9.36,4.62,9.16,9.88-.19,5.13-4.42,9.17-9.52,9.17Z"/>
          </g>
          <g>
            <path class="cls-7" d="M260.79,541.16c-4.01,0-7.74-2.55-9.05-6.56-1.64-5,1.08-10.38,6.09-12.02l49.82-16.33c5-1.64,10.38,1.09,12.02,6.09,1.64,5-1.08,10.38-6.09,12.02l-49.82,16.33c-.99,.32-1.99,.48-2.97,.48Z"/>
            <path class="cls-7" d="M285.2,584.98c-2.81,0-5.59-1.23-7.47-3.6-3.27-4.12-2.59-10.11,1.53-13.39l35.81-28.46c4.12-3.27,10.11-2.59,13.39,1.53,3.27,4.12,2.59,10.11-1.53,13.39l-35.81,28.46c-1.75,1.39-3.84,2.07-5.92,2.07Z"/>
          </g>
        </g>
        <g>
          <path class="cls-1" d="M468.6,279.81c-3.67,0-7.09-2.34-8.3-6.02-1.5-4.58,.99-9.52,5.58-11.02l26.14-8.57c4.58-1.51,9.52,.99,11.02,5.58,1.5,4.58-1,9.52-5.58,11.02l-26.14,8.57c-.9,.3-1.82,.44-2.72,.44Z"/>
          <path class="cls-1" d="M296.56,336.21c-3.67,0-7.09-2.34-8.3-6.02-1.5-4.58,1-9.52,5.58-11.02l26.14-8.57c4.58-1.5,9.52,1,11.02,5.58,1.5,4.58-1,9.52-5.58,11.02l-26.14,8.57c-.9,.3-1.82,.44-2.72,.44Z"/>
        </g>
        <g>
          <path class="cls-6" d="M508.04,473.34c2.62,7.4,3.89,14.88,3.87,22,.04,19.69-9.36,36.73-25.27,42.37-15.95,5.66-33.99-1.64-46.36-16.96-4.51-5.52-8.24-12.12-10.87-19.52-9.89-27.88-.29-56.72,21.43-64.43,21.68-7.69,47.31,8.65,57.2,36.53Z"/>
          <path class="cls-5" d="M511.9,495.34c.04,19.69-9.36,36.73-25.27,42.37-15.95,5.66-33.99-1.64-46.36-16.96-.04-19.69,9.36-36.73,25.31-42.38,15.91-5.64,33.95,1.66,46.32,16.97Z"/>
          <path class="cls-6" d="M516.26,470.41c-5.43-15.3-15.27-28.09-27.7-36.02-10.32-6.59-21.46-9.24-32.11-7.83l-5.27-14.85,5.65-2c4.55-1.61,6.92-6.61,5.31-11.15-1.61-4.55-6.61-6.92-11.15-5.31l-27.75,9.85c-4.55,1.61-6.92,6.61-5.31,11.15,1.27,3.58,4.64,5.82,8.23,5.82,.97,0,1.96-.16,2.92-.51l5.64-2,5.28,14.87c-20.59,12.74-29.06,42.83-18.81,71.72,9.49,26.74,32.08,44.19,54.43,44.19,4.69,0,9.38-.77,13.92-2.38,13.09-4.65,23.01-15.34,27.92-30.11,4.65-14,4.23-30.13-1.2-45.43Zm-15.38,39.91c-3.18,9.55-9.28,16.35-17.18,19.16-17.13,6.08-37.79-7.91-46.05-31.18-8.26-23.27-1.04-47.15,16.1-53.23,2.64-.94,5.41-1.4,8.24-1.4,5.64,0,11.53,1.84,17.18,5.44,9.17,5.85,16.5,15.49,20.63,27.14,4.13,11.65,4.52,23.75,1.09,34.07Z"/>
        </g>
        <path class="cls-1" d="M584.68,350.04c4.12,12.57-2.73,26.1-15.3,30.22-12.57,4.12-26.1-2.73-30.22-15.3-4.12-12.57,2.73-26.1,15.3-30.22,12.57-4.12,26.1,2.73,30.22,15.3Z"/>
        <path class="cls-1" d="M562.06,401.69c2.59,7.89-1.71,16.39-9.6,18.97-7.89,2.59-16.39-1.71-18.97-9.6-2.59-7.89,1.71-16.39,9.6-18.97,7.89-2.59,16.39,1.71,18.97,9.6Z"/>
        <path class="cls-1" d="M365.92,424.23c4.12,12.57-2.73,26.1-15.3,30.22-12.57,4.12-26.1-2.73-30.22-15.3-4.12-12.57,2.73-26.1,15.3-30.22,12.57-4.12,26.1,2.73,30.22,15.3Z"/>
        <path class="cls-1" d="M340.02,474.49c2.59,7.89-1.71,16.39-9.6,18.97-7.89,2.59-16.39-1.71-18.97-9.6-2.59-7.89,1.71-16.39,9.6-18.97,7.89-2.59,16.39,1.71,18.97,9.6Z"/>
      </g>
      <path class="cls-4" d="M405.76,717.55c-20.69-70.07-45.01-159.06-5.25-177.92,39.76-18.86,110.41,169.21,110.41,169.21l-105.16,8.72Z"/>
      <path class="cls-4" d="M619.18,665.69c-35.52-96.07-55.87-167.36-27.94-191.9,27.94-24.55,101.15,95.95,101.15,95.95l-73.21,95.95Z"/>
      <path class="cls-6" d="M405.75,726.28c-3.77,0-7.25-2.46-8.37-6.26-24.72-83.69-45.12-167.17-.62-188.29,5.99-2.84,12.77-2.88,19.6-.12,19.11,7.73,41.57,38.8,68.67,95,19.35,40.13,33.91,78.77,34.06,79.15,1.7,4.51-.59,9.55-5.11,11.25-4.52,1.69-9.55-.59-11.25-5.1-.14-.38-14.47-38.38-33.49-77.81-32.46-67.29-51.17-82.94-59.43-86.28-2.95-1.2-4.52-.78-5.56-.29-34.73,16.48-5.71,114.76,9.88,167.56,1.37,4.63-1.28,9.48-5.9,10.85-.83,.24-1.66,.36-2.48,.36Z"/>
      <path class="cls-6" d="M619.18,674.43c-3.55,0-6.89-2.18-8.19-5.71-39.57-107.04-56.43-174.33-25.51-201.5,5.07-4.46,11.48-6.25,18.51-5.16,16.05,2.46,36.57,20.36,62.71,54.74,18.42,24.22,32.57,47.43,33.16,48.4,2.5,4.12,1.19,9.49-2.93,12-4.12,2.51-9.49,1.19-12-2.93-21.29-35.02-62.8-91.77-83.59-94.95-2.37-.37-3.49,.27-4.33,1.02-25.79,22.66,2.15,105.99,30.36,182.31,1.67,4.53-.64,9.55-5.16,11.22-1,.37-2.02,.54-3.03,.54Z"/>
      <path class="cls-1" d="M697.15,99.94C630.51,37.74,537.92,8.74,405.79,8.74S181.02,37.69,114.38,99.94C43.27,166.28,8.75,266.18,8.75,405.36s34.52,239.03,105.63,305.38c66.64,62.25,159.23,91.2,291.41,91.2s224.73-28.95,291.36-91.2c71.11-66.34,105.63-166.23,105.63-305.38s-34.52-239.08-105.63-305.42Zm-16.12,494.4v.04c-47.39,89.3-139.65,123.15-275.29,123.15-4.43,0-8.82-.04-13.17-.13-197.97-3.33-299.47-83.48-299.47-312.09S199.12,93.1,405.74,93.1s312.64,78.58,312.64,312.21c0,80.27-12.54,142.26-37.35,189.02Z"/>
      <path class="cls-2" d="M405.76,810.69c-134.51,0-229-29.73-297.36-93.55C35.46,649.04,0,547.06,0,405.34S35.46,161.64,108.4,93.55C176.77,29.73,271.26,0,405.76,0s229,29.73,297.36,93.55c72.94,68.1,108.4,170.09,108.4,311.79s-35.46,243.7-108.4,311.79c-68.37,63.82-162.85,93.55-297.36,93.55Zm0-793.22c-129.81,0-220.51,28.23-285.44,88.85C51.11,170.93,17.47,268.74,17.47,405.34s33.64,234.41,102.85,299.02c64.93,60.62,155.63,88.85,285.44,88.85s220.51-28.23,285.44-88.85c69.21-64.61,102.86-162.42,102.86-299.02s-33.64-234.41-102.86-299.02c-64.93-60.62-155.63-88.85-285.44-88.85Z"/>
      <path class="cls-2" d="M406.21,770.86c-.14,.02-.3,.02-.45,.02h0c-6.13,0-11.12-4.99-11.12-11.12h0c0-6.15,4.99-11.12,11.12-11.12h.86c6.13-.02,11.12,4.96,11.13,11.1h0c0,6.15-4.97,11.12-11.12,11.13h0c-.14,0-.29,0-.43-.02Zm-81.45-4.38h0c-6.1-.71-10.47-6.24-9.75-12.34h0c.71-6.1,6.24-10.47,12.34-9.73v-.02c6.1,.73,10.47,6.26,9.75,12.36h0c-.67,5.65-5.48,9.81-11.04,9.81h0c-.43,0-.87-.03-1.3-.08Zm150.55-9.83c-.73-6.08,3.62-11.63,9.72-12.36h0c6.1-.73,11.63,3.62,12.36,9.72h0c.73,6.1-3.62,11.64-9.72,12.36h0c-.44,.06-.89,.08-1.33,.08h0c-5.54,0-10.35-4.14-11.02-9.8Zm-230.71-6.73h0c-5.86-1.86-9.12-8.08-7.27-13.94h0c1.84-5.86,8.08-9.12,13.94-7.27h0c5.84,1.84,9.12,8.08,7.27,13.94h0c-1.49,4.75-5.89,7.78-10.61,7.78h0c-1.11,0-2.22-.18-3.34-.51Zm309.22-7.51c-1.86-5.86,1.38-12.1,7.24-13.96h0c5.86-1.86,12.1,1.38,13.96,7.24h0c1.86,5.85-1.38,12.1-7.24,13.96h0v-.02h0c-1.11,.37-2.25,.52-3.37,.52h0c-4.72,0-9.08-3.02-10.59-7.75Zm-384.15-27.51c-5.11-3.38-6.53-10.29-3.14-15.41h0c3.38-5.13,10.27-6.54,15.39-3.16h0c5.13,3.38,6.54,10.29,3.16,15.4h0c-2.14,3.24-5.69,5-9.29,5h0c-2.1,0-4.22-.6-6.11-1.84Zm457.52-3.6c-3.4-5.12-2.02-12.01,3.1-15.41h0c5.11-3.4,12.01-2.02,15.42,3.1h0c3.4,5.11,2,12.01-3.11,15.4h0c-1.89,1.27-4.02,1.88-6.15,1.88h0c-3.59,0-7.11-1.75-9.26-4.97Zm-518.57-52.79v.02h0c-3.78-4.86-2.89-11.83,1.95-15.61h0c4.84-3.76,11.83-2.89,15.6,1.95v.02c3.76,4.84,2.89,11.82-1.95,15.6h0c-2.03,1.57-4.43,2.33-6.81,2.33h0c-3.32,0-6.59-1.48-8.78-4.3Zm579.25,1.3c-4.86-3.75-5.76-10.74-2.02-15.6h0c3.75-4.86,10.74-5.75,15.6-2h0c4.86,3.75,5.76,10.72,2.02,15.58h0c-2.19,2.84-5.5,4.34-8.81,4.34h0c-2.37,0-4.76-.76-6.78-2.32ZM68.34,586.14c-2.21-5.73,.65-12.16,6.37-14.37h0c5.73-2.21,12.17,.64,14.37,6.37h0c2.21,5.73-.65,12.17-6.37,14.37h0c-1.32,.51-2.67,.75-4,.75h0c-4.46,0-8.67-2.7-10.37-7.12Zm660.83,5.58c-5.73-2.19-8.61-8.62-6.42-14.36h0c2.19-5.73,8.62-8.61,14.36-6.42h0c5.73,2.19,8.61,8.62,6.4,14.36h0c-1.68,4.43-5.91,7.15-10.37,7.15h0c-1.32,0-2.67-.24-3.97-.73ZM47.39,506.83c-1-6.05,3.11-11.77,9.16-12.75h0c6.07-1,11.78,3.11,12.77,9.16h.02c.98,6.07-3.13,11.78-9.18,12.77h0c-.62,.09-1.22,.14-1.81,.14h0c-5.35,0-10.07-3.86-10.96-9.32Zm704.15,8.34c-6.07-.99-10.18-6.7-9.21-12.75h0c.98-6.07,6.7-10.18,12.75-9.2h0c6.07,.97,10.18,6.69,9.19,12.74h0c-.87,5.46-5.59,9.35-10.96,9.35h0c-.59,0-1.17-.05-1.78-.14ZM40.08,425.84c-.16-6.15,4.69-11.24,10.82-11.42h0c6.15-.16,11.26,4.69,11.42,10.83h0c.16,6.13-4.69,11.24-10.82,11.4h-.3c-6,0-10.96-4.78-11.12-10.81Zm719.99,9.94c-6.15-.14-10.99-5.26-10.83-11.39h0c.16-6.15,5.26-10.99,11.39-10.83h0c6.15,.16,10.99,5.26,10.83,11.4h0v-.02h0c-.14,6.05-5.08,10.85-11.1,10.85h0c-.1,0-.19,0-.29-.02ZM52.44,356.8c-6.13-.54-10.66-5.92-10.12-12.04h0c.52-6.11,5.92-10.66,12.04-10.12h0c6.11,.52,10.64,5.92,10.12,12.04h0c-.51,5.78-5.37,10.15-11.07,10.15h0c-.32,0-.65-.02-.97-.03Zm694.55-10.96c-.54-6.13,3.97-11.51,10.1-12.05h0c6.11-.54,11.5,3.97,12.04,10.08h0c.56,6.13-3.97,11.51-10.08,12.05h0c-.33,.03-.67,.05-1,.05h0c-5.69,0-10.55-4.35-11.05-10.13ZM63.65,277.76c-5.94-1.54-9.51-7.59-7.97-13.55h0c1.54-5.94,7.61-9.51,13.55-7.97h0c5.96,1.54,9.51,7.61,7.97,13.55h0c-1.29,5.02-5.8,8.34-10.75,8.34h0c-.92,0-1.86-.11-2.8-.37Zm670.47-8.78c-1.56-5.94,2-12.02,7.94-13.56h0c5.94-1.56,12.01,2,13.56,7.94h0c1.56,5.94-2,12.02-7.94,13.56h0c-.95,.25-1.89,.37-2.83,.37h0c-4.92,0-9.43-3.3-10.74-8.31ZM89.93,202.48c-5.38-2.95-7.35-9.72-4.4-15.1h0c2.97-5.37,9.72-7.34,15.1-4.38h0c5.38,2.97,7.34,9.72,4.38,15.1h0c-2.02,3.68-5.83,5.76-9.75,5.76h0c-1.81,0-3.65-.45-5.34-1.38Zm616.17-5.11c-2.97-5.37-1.03-12.13,4.34-15.12h0c5.37-2.97,12.13-1.02,15.12,4.35h0c2.97,5.37,1.03,12.13-4.34,15.1h0c-1.72,.95-3.56,1.4-5.38,1.4h0c-3.91,0-7.7-2.06-9.74-5.73ZM135.91,137.5c-4.18-4.51-3.91-11.55,.6-15.71h0v-.02h0c4.51-4.16,11.55-3.89,15.72,.62h0c4.16,4.51,3.87,11.55-.62,15.72h0c-2.14,1.97-4.84,2.94-7.54,2.94h0c-3,0-5.99-1.19-8.16-3.56Zm523.41,.05c-4.53-4.14-4.83-11.18-.68-15.71h0c4.16-4.53,11.2-4.81,15.71-.67h0c4.53,4.15,4.83,11.18,.68,15.71h0c-2.19,2.38-5.19,3.61-8.2,3.61h0c-2.68,0-5.38-.97-7.51-2.94ZM200.21,90.57c-2.59-5.56-.17-12.18,5.4-14.75h0c5.56-2.59,12.18-.18,14.75,5.4h0c2.59,5.56,.17,12.18-5.4,14.75h0c-1.51,.71-3.1,1.05-4.67,1.05h0c-4.19,0-8.21-2.38-10.08-6.45Zm395.6,5.07v-.02c-5.59-2.56-8.02-9.16-5.45-14.74h0c2.56-5.57,9.16-8.02,14.74-5.45h.02c5.57,2.57,8,9.16,5.43,14.75h0c-1.87,4.07-5.89,6.46-10.1,6.46h0c-1.56,0-3.14-.33-4.64-1.02Zm-320.53-31.83c-1.22-6.02,2.67-11.88,8.67-13.12h0c6.02-1.22,11.89,2.67,13.12,8.67h0c1.24,6.02-2.65,11.9-8.67,13.12h0c-.75,.16-1.49,.22-2.24,.22h0c-5.16,0-9.8-3.62-10.88-8.89Zm247.02,8.5c-6.02-1.21-9.91-7.07-8.7-13.09h0c1.22-6.02,7.08-9.91,13.1-8.7h0c6.02,1.22,9.91,7.08,8.7,13.1h0c-1.06,5.27-5.7,8.91-10.89,8.91h0c-.71,0-1.46-.06-2.21-.22Zm-167.99-19.77c-.32-6.13,4.38-11.35,10.51-11.67h0c6.13-.33,11.37,4.38,11.69,10.51h0c.32,6.13-4.38,11.35-10.51,11.69h0c-.21,0-.4,.02-.6,.02h0c-5.86,0-10.77-4.61-11.09-10.55Zm90.38,10.48c-6.13-.32-10.85-5.54-10.53-11.67h0c.32-6.13,5.54-10.85,11.67-10.53h0c6.13,.3,10.85,5.54,10.53,11.67h0c-.3,5.94-5.21,10.55-11.09,10.55h0c-.19,0-.4-.02-.59-.02Z"/>
      <path class="cls-2" d="M405.76,726.28c-4.47,0-8.95-.04-13.33-.13-107.04-1.8-180.11-25.33-229.91-74.05-52.57-51.42-78.12-132.14-78.12-246.77s26.69-198.84,81.61-250.1c51.78-48.33,127.96-70.84,239.76-70.84s188,22.51,239.78,70.84c54.9,51.26,81.59,133.06,81.59,250.1,0,81.03-12.47,144.05-38.11,192.64-.08,.18-.16,.35-.25,.52-24.25,45.69-59.85,78.08-108.83,99-45.35,19.37-102.32,28.79-174.17,28.79Zm0-624.42c-107.1,0-179.5,21.02-227.84,66.14-51.18,47.77-76.06,125.41-76.06,237.33s23.84,186.31,72.87,234.28c46.41,45.4,115.69,67.35,218.01,69.08,4.29,.08,8.67,.12,13.02,.12,69.44,0,124.17-8.96,167.3-27.38,45-19.22,77.72-48.88,100.02-90.66,.08-.17,.16-.34,.25-.51,24.45-46.06,36.33-106.56,36.33-184.93,0-111.93-24.87-189.56-76.04-237.33-48.34-45.13-120.74-66.14-227.86-66.14Zm275.29,492.54h0Z"/>
      <path class="cls-1" d="M647.56,251.61c-3.24,0-6.35-1.81-7.86-4.91-4.91-10.07-10.6-19.43-16.91-27.83-2.9-3.85-2.13-9.33,1.73-12.23,3.85-2.9,9.33-2.13,12.23,1.73,6.99,9.28,13.27,19.6,18.66,30.68,2.11,4.34,.31,9.56-4.03,11.68-1.23,.6-2.54,.88-3.82,.88Z"/>
      <path class="cls-1" d="M655.89,555.74c-.99,0-2-.17-2.98-.53-4.53-1.65-6.87-6.66-5.23-11.19,13.31-36.65,19.78-82.01,19.78-138.68,0-45.73-3.95-83.35-12.07-115-1.2-4.67,1.62-9.43,6.29-10.63,4.68-1.2,9.43,1.62,10.63,6.29,8.49,33.09,12.62,72.13,12.62,119.34,0,58.74-6.82,106.05-20.83,144.65-1.29,3.55-4.64,5.76-8.21,5.76Z"/>
    </g>
  </g>
</svg>