<?xml version="1.0" encoding="utf-8"?>
<!-- Generator: Adobe Illustrator 27.0.0, SVG Export Plug-In . SVG Version: 6.00 Build 0)  -->
<svg version="1.1" id="Layer_2_00000018953333871640710490000007974844195176381317_"
	 xmlns="http://www.w3.org/2000/svg" xmlns:xlink="http://www.w3.org/1999/xlink" x="0px" y="0px" viewBox="0 0 288.4 288.1"
	 style="enable-background:new 0 0 288.4 288.1;" xml:space="preserve">
<style type="text/css">
	.st0{fill:#95E0E8;}
	.st1{fill:#B2B8C4;}
	.st2{fill:#95A1B3;}
	.st3{fill:#70838E;}
	.st4{fill:#FFFFFF;}
	.st5{fill:#5F5C5D;}
	.st6{fill:#E27FA3;}
	.st7{fill:#E2E2E2;}
</style>
<g id="background">
	<g>
		<g>
			<path class="st0" d="M255.3,144c0,11.1-0.7,21.3-2,30.5C244.5,234,207.8,255,144.2,255c-41,0-70.8-8.7-89.2-30.9
				c-14.5-17.5-21.9-43.4-21.9-80.1c0-40.1,8.8-67.4,26.2-84.9c18.6-18.6,47-26.1,84.9-26.1c59.7,0,95.7,18.5,107.2,69.9
				C254,114.9,255.3,128.5,255.3,144L255.3,144z"/>
			<ellipse class="st1" cx="192.8" cy="229.4" rx="36.2" ry="32.2"/>
			<g>
				<path class="st1" d="M191.5,18.1c-12.2,9.7-24.5,23.5-31.6,32.2c-8.7,1.3-19.5,4.2-31.6,8.3c-12.2,3.9-22.6,8-30.4,12
					c-20.1-5-64.9-14.2-72.9,1.6C17,87.8,41,115.7,52.6,127.8c-3.6,16.5-1.7,32.5,2.6,45.5c3.7,11.2,8.7,22,15.1,32.4
					c12.4,20.2,35.3,31.3,58.8,28.6c18.2-2.1,35.8-6,52.9-11.6c17.1-5.6,33.6-12.9,49.5-21.9c20.6-11.7,32.4-34.2,30.5-57.9
					c-1-12.1-3.3-23.8-7-35c-4.3-13-12.2-27.1-24.9-38.2c1.1-8.3,2.3-21.7,1.4-33.9C230.5,23.5,201.9,9.9,191.5,18.1L191.5,18.1z"/>
				<g>
					<path class="st2" d="M142.9,62.6c6.1,18.6,5.6,35.5-1,37.6c-6.7,2.2-17-11.1-23.1-29.7c-0.8-2.6-1.6-5.1-2.1-7.5
						c7.7-2.9,15.6-5.5,23.6-7.7C141.2,57.6,142.1,60.1,142.9,62.6L142.9,62.6z"/>
					<g>
						<path class="st2" d="M115,65c6.1,18.6,5.6,35.5-1,37.6c-6.4,2.1-16.3-10.2-22.4-27.8c3.8-2.4,7.8-4.6,12.1-6.5
							c3.6-1.6,7.3-3.1,11-4.6C114.7,64.2,114.8,64.6,115,65L115,65z"/>
						<path class="st2" d="M167.4,49.8c5.5,17.8,4.8,33.7-1.6,35.8c-6.7,2.2-17-11.1-23.1-29.7c-0.1-0.4-0.3-0.8-0.4-1.2
							c4.4-1.2,8.8-2.2,13.3-3.2C159.6,50.7,163.5,50.1,167.4,49.8L167.4,49.8z"/>
					</g>
				</g>
				<path class="st3" d="M162.2,52.2l-4.8-4c7.9-9.6,20-23,32.1-32.6l3.9,4.9C181.1,30.3,168.6,44.6,162.2,52.2L162.2,52.2z"/>
				<path class="st4" d="M215,41.5c0,0,3.4,3.7,5.3,8.5c1.8,4.4,0.2,8.8-2.9,11.4c-10.3-6-21.8-10-33.8-11.4
					c-0.7-2.5-0.5-5.2,0.9-7.7c5.6-9.9,14.1-21.4,23-20.8C223,22.7,215,41.5,215,41.5L215,41.5z"/>
				<path class="st4" d="M48.2,96.2c0,0-0.5,5,0.8,10c1.2,4.6,5,7.2,9.1,7.4c4.7-11,11.7-20.9,20.5-29.2c-0.9-2.4-2.7-4.5-5.3-5.7
					c-10.4-4.7-24-8.9-30.8-3.1C30.6,85.7,48.2,96.2,48.2,96.2L48.2,96.2z"/>
				<g>
					<path class="st3" d="M265.1,142.6c-1-12.3-3.4-24.3-7.2-35.7c-3.2-9.7-10.2-25.4-24.5-38.5c1.1-8.9,2.1-21.3,1.2-32.9l-6.2,0.5
						c0.8,9.4,0.1,19.6-0.7,27.7c-3.6-2.7-7.6-5.3-12-7.5c-1.5-0.8-3.4-0.2-4.2,1.3s-0.2,3.4,1.4,4.2c24.8,12.7,35.2,35,39.2,47.2
						c3.6,11,5.9,22.5,6.9,34.3c0.9,11-1.3,22-6.4,31.7c-5.1,9.7-12.9,17.8-22.5,23.2c-1.5,0.9-2,2.7-1.2,4.2c0.6,1,1.6,1.6,2.7,1.6
						c0.5,0,1.1-0.1,1.5-0.4c10.6-6,19.2-14.9,24.9-25.7C263.6,167,266.1,154.9,265.1,142.6L265.1,142.6z"/>
					<path class="st3" d="M183.9,46.9c-5.4-0.6-11-0.7-16.7-0.5c-9.2,0.4-22.7,3.5-39.9,9.2c-12.4,4-22.3,7.9-29.8,11.7
						c-10.8-2.7-26.3-5.9-40.4-6.8c-19.3-1.2-30.7,2.1-34.9,10.2c-8.3,16.4,12.9,42.9,27.1,58c-3.8,19-0.2,35.9,3,45.6
						c3.8,11.4,8.9,22.6,15.4,33c6.4,10.4,15.6,18.7,26.5,24.1c8.7,4.2,18.2,6.4,27.8,6.4c2.5,0,5-0.1,7.5-0.4
						c18.3-2.2,36.3-6.1,53.5-11.7c1.6-0.5,2.5-2.3,2-3.9c-0.5-1.6-2.3-2.5-3.9-2c-16.8,5.5-34.4,9.4-52.3,11.5
						c-10.9,1.3-22-0.6-31.9-5.4c-9.9-4.8-18.2-12.3-24-21.7c-6.2-10.1-11.2-20.7-14.8-31.7c-4-12.2-8.8-36.3,3.6-61.3
						c0.8-1.5,0.2-3.4-1.4-4.2c-1.5-0.8-3.4-0.1-4.2,1.4c-2.2,4.4-3.9,8.9-5.2,13.2c-19.3-21.1-28-38.9-23.4-48
						c4.5-8.8,27.9-9.4,61.9-1.7c-4.8,3.2-9.2,6.7-13.2,10.3c-1.3,1.2-1.4,3.1-0.2,4.4c0.6,0.7,1.4,1,2.3,1c0.8,0,1.5-0.3,2.1-0.8
						c3.8-3.4,7.9-6.7,12.5-9.8c7.2-4.8,19.3-10.1,36.1-15.5c16.7-5.6,29.6-8.6,38.2-8.9c5.4-0.2,10.8,0,15.8,0.5
						c1.7,0.2,3.2-1,3.4-2.8C186.8,48.6,185.6,47.1,183.9,46.9L183.9,46.9z"/>
				</g>
				
					<ellipse transform="matrix(0.9502 -0.3115 0.3115 0.9502 -43.8211 45.1165)" class="st5" cx="119.3" cy="159.7" rx="17.3" ry="19.7"/>
				<path class="st5" d="M213.9,128.7c-3.4-10.3-13.5-16.3-22.6-13.3c-9.1,3-13.7,13.8-10.4,24.1c3.4,10.3,13.5,16.3,22.6,13.3
					C212.6,149.9,217.2,139.1,213.9,128.7L213.9,128.7z"/>
				<g>
					<g>
						<path class="st2" d="M216.3,151.8c-1.4,0-2.8-0.9-3.2-2.3c-0.6-1.8,0.4-3.7,2.2-4.3l17.7-5.8c1.8-0.6,3.7,0.4,4.3,2.2
							c0.6,1.8-0.4,3.7-2.2,4.3l-17.7,5.8C217,151.7,216.7,151.8,216.3,151.8L216.3,151.8z"/>
						<path class="st2" d="M236.3,163.6c0,0-0.1,0-0.1,0l-16.2-0.6c-1.9-0.1-3.3-1.6-3.3-3.5s1.6-3.3,3.5-3.3l16.2,0.6
							c1.9,0.1,3.3,1.6,3.3,3.5C239.6,162.2,238.1,163.6,236.3,163.6L236.3,163.6z"/>
					</g>
					<g>
						<path class="st2" d="M92.7,192.3c-1.4,0-2.8-0.9-3.2-2.3c-0.6-1.8,0.4-3.7,2.2-4.3l17.7-5.8c1.8-0.6,3.7,0.4,4.3,2.2
							c0.6,1.8-0.4,3.7-2.2,4.3l-17.7,5.8C93.4,192.2,93,192.3,92.7,192.3L92.7,192.3z"/>
						<path class="st2" d="M101.3,207.9c-1,0-2-0.4-2.7-1.3c-1.2-1.5-0.9-3.6,0.5-4.8l12.7-10.1c1.5-1.2,3.6-0.9,4.8,0.5
							c1.2,1.5,0.9,3.6-0.5,4.8l-12.7,10.1C102.8,207.6,102.1,207.9,101.3,207.9L101.3,207.9z"/>
					</g>
				</g>
				<g>
					<path class="st4" d="M166.5,99.4c-1.3,0-2.5-0.8-2.9-2.1c-0.5-1.6,0.4-3.4,2-3.9l9.3-3c1.6-0.5,3.4,0.3,3.9,2
						c0.5,1.6-0.4,3.4-2,3.9l-9.3,3C167.2,99.4,166.8,99.4,166.5,99.4z"/>
					<path class="st4" d="M105.4,119.5c-1.3,0-2.5-0.8-2.9-2.1c-0.5-1.6,0.3-3.4,2-3.9l9.3-3c1.6-0.5,3.4,0.3,3.9,2
						c0.5,1.6-0.3,3.4-2,3.9l-9.3,3C106,119.4,105.7,119.5,105.4,119.5z"/>
				</g>
				<g>
					<path class="st3" d="M180.5,168.2c0.9,2.6,1.4,5.3,1.4,7.8c0,7-3.3,13.1-9,15.1c-5.7,2-12.1-0.6-16.5-6c-1.6-2-2.9-4.3-3.9-6.9
						c-3.5-9.9-0.1-20.2,7.6-22.9C167.9,152.5,177,158.3,180.5,168.2z"/>
					<path class="st6" d="M181.9,176c0,7-3.3,13.1-9,15.1c-5.7,2-12.1-0.6-16.5-6c0-7,3.3-13.1,9-15.1
						C171.1,168,177.5,170.6,181.9,176z"/>
					<path class="st3" d="M183.4,167.1c-1.9-5.4-5.4-10-9.8-12.8c-3.7-2.3-7.6-3.3-11.4-2.8l-1.9-5.3l2-0.7c1.6-0.6,2.5-2.4,1.9-4
						c-0.6-1.6-2.4-2.5-4-1.9l-9.9,3.5c-1.6,0.6-2.5,2.4-1.9,4c0.4,1.3,1.6,2.1,2.9,2.1c0.3,0,0.7-0.1,1-0.2l2-0.7l1.9,5.3
						c-7.3,4.5-10.3,15.2-6.7,25.5c3.4,9.5,11.4,15.7,19.3,15.7c1.7,0,3.3-0.3,4.9-0.9c4.6-1.6,8.2-5.4,9.9-10.7
						C185.5,178.3,185.4,172.6,183.4,167.1L183.4,167.1z M178,181.3c-1.1,3.4-3.3,5.8-6.1,6.8c-6.1,2.2-13.4-2.8-16.4-11.1
						c-2.9-8.3-0.4-16.8,5.7-18.9c0.9-0.3,1.9-0.5,2.9-0.5c2,0,4.1,0.6,6.1,1.9c3.3,2.1,5.9,5.5,7.3,9.6S179.2,177.7,178,181.3
						L178,181.3z"/>
				</g>
				<path class="st4" d="M207.8,124.4c1.5,4.5-1,9.3-5.4,10.7c-4.5,1.5-9.3-1-10.7-5.4s1-9.3,5.4-10.7S206.3,119.9,207.8,124.4z"/>
				<path class="st4" d="M199.7,142.7c0.9,2.8-0.6,5.8-3.4,6.7s-5.8-0.6-6.7-3.4s0.6-5.8,3.4-6.7S198.8,139.9,199.7,142.7z"/>
				<path class="st4" d="M130,150.7c1.5,4.5-1,9.3-5.4,10.7s-9.3-1-10.7-5.4s1-9.3,5.4-10.7S128.6,146.3,130,150.7z"/>
				<path class="st4" d="M120.8,168.6c0.9,2.8-0.6,5.8-3.4,6.7s-5.8-0.6-6.7-3.4s0.6-5.8,3.4-6.7S119.9,165.8,120.8,168.6z"/>
			</g>
			<path class="st1" d="M144.2,255c-7.4-24.9-16-56.5-1.9-63.2c14.1-6.7,39.2,60.1,39.2,60.1L144.2,255L144.2,255z"/>
			<path class="st1" d="M220,236.5c-12.6-34.1-19.9-59.5-9.9-68.2c9.9-8.7,35.9,34.1,35.9,34.1L220,236.5L220,236.5z"/>
			<path class="st3" d="M144.2,258.1c-1.3,0-2.6-0.9-3-2.2c-8.8-29.7-16-59.4-0.2-66.9c2.1-1,4.5-1,7,0c6.8,2.8,14.8,13.8,24.4,33.8
				c6.9,14.3,12.1,28,12.1,28.1c0.6,1.6-0.2,3.4-1.8,4c-1.6,0.6-3.4-0.2-4-1.8c-0.1-0.1-5.1-13.6-11.9-27.6
				c-11.5-23.9-18.2-29.5-21.1-30.7c-1.1-0.4-1.6-0.3-2-0.1c-12.3,5.9-2,40.8,3.5,59.5c0.5,1.6-0.4,3.4-2.1,3.9
				C144.8,258,144.5,258.1,144.2,258.1L144.2,258.1z"/>
			<path class="st3" d="M220,239.6c-1.3,0-2.4-0.8-2.9-2c-14.1-38-20.1-61.9-9.1-71.6c1.8-1.6,4.1-2.2,6.6-1.8
				c5.7,0.9,13,7.2,22.3,19.4c6.6,8.6,11.6,16.9,11.8,17.2c0.9,1.5,0.4,3.4-1,4.3c-1.5,0.9-3.4,0.4-4.3-1
				c-7.6-12.4-22.3-32.6-29.7-33.7c-0.8-0.1-1.2,0.1-1.5,0.4c-9.2,8.1,0.8,37.7,10.8,64.8c0.6,1.6-0.2,3.4-1.8,4
				C220.8,239.6,220.4,239.6,220,239.6L220,239.6z"/>
			<path class="st4" d="M247.7,35.5C224,13.4,191.1,3.1,144.2,3.1S64.3,13.4,40.6,35.5C15.4,59.1,3.1,94.6,3.1,144
				S15.4,229,40.6,252.5C64.3,274.7,97.2,285,144.2,285s79.9-10.3,103.5-32.4C273,229,285.3,193.5,285.3,144S273,59.1,247.7,35.5
				L247.7,35.5z M242,211.2L242,211.2c-16.8,31.8-49.6,43.8-97.8,43.8c-1.6,0-3.1,0-4.7-0.1C69.1,253.7,33.1,225.2,33.1,144
				S70.8,33.1,144.2,33.1S255.3,61,255.3,144C255.3,172.5,250.8,194.6,242,211.2L242,211.2z"/>
			<path class="st7" d="M144.2,288.1c-47.8,0-81.4-10.6-105.7-33.2C12.6,230.6,0,194.4,0,144S12.6,57.4,38.5,33.2
				C62.8,10.6,96.4,0,144.2,0s81.4,10.6,105.7,33.2c25.9,24.2,38.5,60.4,38.5,110.8s-12.6,86.6-38.5,110.8
				C225.5,277.5,192,288.1,144.2,288.1L144.2,288.1z M144.2,6.2c-46.1,0-78.3,10-101.4,31.6C18.2,60.7,6.2,95.5,6.2,144
				s11.9,83.3,36.5,106.2c23.1,21.5,55.3,31.6,101.4,31.6s78.4-10,101.4-31.6c24.6-23,36.5-57.7,36.5-106.2s-12-83.3-36.6-106.2
				C222.5,16.2,190.3,6.2,144.2,6.2L144.2,6.2z"/>
			<path class="st7" d="M144.3,273.9c-0.1,0-0.1,0-0.2,0l0,0c-2.2,0-3.9-1.8-3.9-4l0,0c0-2.2,1.8-4,3.9-4h0.3c2.2,0,3.9,1.8,4,3.9
				l0,0c0,2.2-1.8,4-3.9,4l0,0C144.4,273.9,144.4,273.9,144.3,273.9L144.3,273.9z M115.4,272.4L115.4,272.4
				c-2.2-0.2-3.7-2.2-3.5-4.4l0,0c0.2-2.2,2.2-3.7,4.4-3.5l0,0c2.2,0.2,3.7,2.2,3.5,4.4l0,0c-0.2,2-1.9,3.5-3.9,3.5l0,0
				C115.7,272.4,115.6,272.4,115.4,272.4L115.4,272.4z M168.9,268.9c-0.3-2.2,1.3-4.1,3.4-4.4l0,0c2.2-0.3,4.1,1.3,4.4,3.5l0,0
				c0.3,2.2-1.3,4.1-3.4,4.4l0,0c-0.2,0-0.3,0-0.5,0l0,0C170.8,272.3,169.1,270.9,168.9,268.9z M86.9,266.5L86.9,266.5
				c-2.1-0.7-3.2-2.9-2.6-5l0,0c0.7-2.1,2.9-3.2,4.9-2.6l0,0c2.1,0.6,3.2,2.9,2.6,5l0,0c-0.5,1.7-2.1,2.8-3.8,2.8l0,0
				C87.7,266.7,87.3,266.6,86.9,266.5L86.9,266.5z M196.8,263.8c-0.7-2.1,0.5-4.3,2.6-5l0,0c2.1-0.7,4.3,0.5,5,2.6l0,0
				c0.7,2.1-0.5,4.3-2.6,5l0,0c-0.4,0.1-0.8,0.2-1.2,0.2l0,0C198.9,266.5,197.3,265.5,196.8,263.8L196.8,263.8z M60.3,254
				c-1.8-1.2-2.3-3.7-1.1-5.5l0,0c1.2-1.8,3.7-2.3,5.5-1.1l0,0c1.8,1.2,2.3,3.7,1.1,5.5l0,0c-0.8,1.1-2,1.8-3.3,1.8l0,0
				C61.7,254.7,61,254.5,60.3,254L60.3,254z M222.9,252.7c-1.2-1.8-0.7-4.3,1.1-5.5l0,0c1.8-1.2,4.3-0.7,5.5,1.1l0,0
				c1.2,1.8,0.7,4.3-1.1,5.5l0,0c-0.7,0.4-1.4,0.7-2.2,0.7l0,0C224.9,254.5,223.6,253.9,222.9,252.7L222.9,252.7z M38.6,234
				L38.6,234c-1.3-1.7-1-4.2,0.7-5.5l0,0c1.7-1.3,4.2-1,5.5,0.7l0,0c1.3,1.7,1,4.2-0.7,5.6l0,0c-0.7,0.6-1.6,0.8-2.4,0.8l0,0
				C40.5,235.5,39.4,235,38.6,234L38.6,234z M244.4,234.4c-1.7-1.3-2.1-3.8-0.7-5.5l0,0c1.3-1.7,3.8-2,5.5-0.7l0,0
				c1.7,1.3,2.1,3.8,0.7,5.5l0,0c-0.8,1-1.9,1.5-3.1,1.5l0,0C246,235.3,245.1,235,244.4,234.4L244.4,234.4z M24.3,208.3
				c-0.8-2,0.2-4.3,2.3-5.1l0,0c2-0.8,4.3,0.2,5.1,2.3l0,0c0.8,2-0.2,4.3-2.3,5.1l0,0c-0.5,0.2-1,0.3-1.4,0.3l0,0
				C26.4,210.8,24.9,209.8,24.3,208.3L24.3,208.3z M259.1,210.3c-2-0.8-3.1-3.1-2.3-5.1l0,0c0.8-2,3.1-3.1,5.1-2.3l0,0
				c2,0.8,3.1,3.1,2.3,5.1l0,0c-0.6,1.6-2.1,2.5-3.7,2.5l0,0C260,210.5,259.5,210.4,259.1,210.3L259.1,210.3z M16.8,180.1
				c-0.4-2.1,1.1-4.2,3.3-4.5l0,0c2.2-0.4,4.2,1.1,4.5,3.3l0,0c0.4,2.2-1.1,4.2-3.3,4.5l0,0c-0.2,0-0.4,0.1-0.6,0.1l0,0
				C18.8,183.4,17.2,182.1,16.8,180.1L16.8,180.1z M267.1,183.1c-2.2-0.4-3.6-2.4-3.3-4.5l0,0c0.4-2.2,2.4-3.6,4.5-3.3l0,0
				c2.2,0.3,3.6,2.4,3.3,4.5l0,0c-0.3,1.9-2,3.3-3.9,3.3l0,0C267.5,183.1,267.3,183.1,267.1,183.1L267.1,183.1z M14.2,151.3
				c-0.1-2.2,1.7-4,3.8-4.1l0,0c2.2-0.1,4,1.7,4.1,3.9l0,0c0.1,2.2-1.7,4-3.8,4.1h-0.1C16.1,155.2,14.3,153.5,14.2,151.3L14.2,151.3
				z M270.1,154.9c-2.2-0.1-3.9-1.9-3.9-4.1l0,0c0.1-2.2,1.9-3.9,4-3.9l0,0c2.2,0.1,3.9,1.9,3.9,4.1l0,0c0,2.1-1.8,3.9-3.9,3.9l0,0
				C270.2,154.9,270.1,154.9,270.1,154.9L270.1,154.9z M18.6,126.8c-2.2-0.2-3.8-2.1-3.6-4.3l0,0c0.2-2.2,2.1-3.8,4.3-3.6l0,0
				c2.2,0.2,3.8,2.1,3.6,4.3l0,0c-0.2,2.1-1.9,3.6-3.9,3.6l0,0C18.9,126.8,18.8,126.8,18.6,126.8L18.6,126.8z M265.4,122.9
				c-0.2-2.2,1.4-4.1,3.6-4.3l0,0c2.2-0.2,4.1,1.4,4.3,3.6l0,0c0.2,2.2-1.4,4.1-3.6,4.3l0,0c-0.1,0-0.2,0-0.4,0l0,0
				C267.3,126.5,265.6,124.9,265.4,122.9L265.4,122.9z M22.6,98.7c-2.1-0.6-3.4-2.7-2.8-4.8l0,0c0.5-2.1,2.7-3.4,4.8-2.8l0,0
				c2.1,0.6,3.4,2.7,2.8,4.8l0,0c-0.5,1.8-2.1,3-3.8,3l0,0C23.3,98.8,23,98.8,22.6,98.7z M260.9,95.6c-0.5-2.1,0.7-4.3,2.8-4.8l0,0
				c2.1-0.6,4.3,0.7,4.8,2.8l0,0c0.5,2.1-0.7,4.3-2.8,4.8l0,0c-0.3,0.1-0.7,0.1-1,0.1l0,0C262.9,98.5,261.3,97.4,260.9,95.6
				L260.9,95.6z M32,71.9c-1.9-1.1-2.6-3.4-1.6-5.4l0,0c1.1-1.9,3.4-2.6,5.4-1.6l0,0c1.9,1.1,2.6,3.4,1.6,5.4l0,0
				c-0.7,1.3-2.1,2.1-3.5,2.1l0,0C33.2,72.4,32.6,72.3,32,71.9L32,71.9z M250.9,70.1c-1.1-1.9-0.4-4.3,1.5-5.4l0,0
				c1.9-1.1,4.3-0.4,5.4,1.6l0,0c1.1,1.9,0.4,4.3-1.5,5.4l0,0c-0.6,0.3-1.3,0.5-1.9,0.5l0,0C253,72.2,251.6,71.4,250.9,70.1
				L250.9,70.1z M48.3,48.9c-1.5-1.6-1.4-4.1,0.2-5.6l0,0c1.6-1.5,4.1-1.4,5.6,0.2l0,0c1.5,1.6,1.4,4.1-0.2,5.6l0,0
				c-0.8,0.7-1.7,1-2.7,1l0,0C50.1,50.1,49.1,49.7,48.3,48.9z M234.3,48.9c-1.6-1.5-1.7-4-0.2-5.6l0,0c1.5-1.6,4-1.7,5.6-0.2l0,0
				c1.6,1.5,1.7,4,0.2,5.6l0,0c-0.8,0.8-1.9,1.3-2.9,1.3l0,0C236,49.9,235,49.6,234.3,48.9z M71.1,32.2c-0.9-2-0.1-4.3,1.9-5.2l0,0
				c2-0.9,4.3-0.1,5.2,1.9l0,0c0.9,2,0.1,4.3-1.9,5.2l0,0c-0.5,0.2-1.1,0.4-1.7,0.4l0,0C73.2,34.5,71.8,33.6,71.1,32.2z M211.7,34
				L211.7,34c-2-0.9-2.9-3.3-1.9-5.2l0,0c0.9-2,3.3-2.9,5.2-1.9l0,0c2,0.9,2.8,3.3,1.9,5.2l0,0c-0.7,1.4-2.1,2.3-3.6,2.3l0,0
				C212.8,34.3,212.2,34.2,211.7,34L211.7,34z M97.8,22.7c-0.4-2.1,0.9-4.2,3.1-4.7l0,0c2.1-0.4,4.2,1,4.7,3.1l0,0
				c0.4,2.1-0.9,4.2-3.1,4.7l0,0c-0.3,0.1-0.5,0.1-0.8,0.1l0,0C99.8,25.8,98.2,24.5,97.8,22.7L97.8,22.7z M185.6,25.7
				c-2.1-0.4-3.5-2.5-3.1-4.6l0,0c0.4-2.1,2.5-3.5,4.7-3.1l0,0c2.1,0.4,3.5,2.5,3.1,4.7l0,0c-0.4,1.9-2,3.2-3.9,3.2l0,0
				C186.1,25.8,185.9,25.8,185.6,25.7L185.6,25.7z M125.9,18.7c-0.1-2.2,1.6-4,3.7-4.1l0,0c2.2-0.1,4,1.6,4.1,3.7l0,0
				c0.1,2.2-1.6,4-3.7,4.1l0,0c-0.1,0-0.1,0-0.2,0l0,0C127.7,22.4,126,20.8,125.9,18.7L125.9,18.7z M158,22.4
				c-2.2-0.1-3.9-2-3.7-4.1l0,0c0.1-2.2,2-3.9,4.1-3.7l0,0c2.2,0.1,3.9,2,3.7,4.1l0,0c-0.1,2.1-1.9,3.8-3.9,3.8l0,0
				C158.1,22.4,158.1,22.4,158,22.4L158,22.4z"/>
			<path class="st7" d="M144.2,258.1c-1.6,0-3.2,0-4.7,0c-38-0.6-64-9-81.7-26.3C39.1,213.4,30,184.8,30,144s9.5-70.7,29-88.9
				C77.4,38,104.4,30,144.2,30s66.8,8,85.2,25.2c19.5,18.2,29,47.3,29,88.9c0,28.8-4.4,51.2-13.5,68.4c0,0.1-0.1,0.1-0.1,0.2
				c-8.6,16.2-21.3,27.7-38.7,35.2C190,254.7,169.7,258.1,144.2,258.1L144.2,258.1z M144.2,36.2c-38.1,0-63.8,7.5-81,23.5
				c-18.2,17-27,44.6-27,84.3s8.5,66.2,25.9,83.2c16.5,16.1,41.1,23.9,77.5,24.5c1.5,0,3.1,0,4.6,0c24.7,0,44.1-3.2,59.4-9.7
				c16-6.8,27.6-17.4,35.5-32.2c0-0.1,0.1-0.1,0.1-0.2c8.7-16.4,12.9-37.9,12.9-65.7c0-39.8-8.8-67.4-27-84.3
				C208,43.7,182.2,36.2,144.2,36.2L144.2,36.2z M242,211.2L242,211.2z"/>
			<path class="st4" d="M230.1,89.4c-1.1,0-2.2-0.6-2.8-1.8c-1.7-3.6-3.8-6.9-6-9.9c-1-1.4-0.8-3.3,0.6-4.3s3.3-0.8,4.4,0.6
				c2.5,3.3,4.7,7,6.6,10.9c0.8,1.5,0.1,3.4-1.4,4.2C231,89.3,230.6,89.4,230.1,89.4L230.1,89.4z"/>
			<path class="st4" d="M233.1,197.5c-0.4,0-0.7-0.1-1.1-0.2c-1.6-0.6-2.4-2.4-1.9-4c4.7-13,7-29.1,7-49.3c0-16.2-1.4-29.6-4.3-40.9
				c-0.4-1.7,0.6-3.3,2.2-3.8c1.7-0.4,3.4,0.6,3.8,2.2c3,11.8,4.5,25.6,4.5,42.4c0,20.9-2.4,37.7-7.4,51.4
				C235.5,196.7,234.3,197.5,233.1,197.5L233.1,197.5z"/>
		</g>
		<g>
			<path class="st6" d="M212.6,106.8c-4-3.4-10.6-6.8-16.2-4.4c-3.8,1.6-6.5,5-8.1,8.9c-3.7-2.2-7.9-3.2-11.9-2.2
				c-5.9,1.5-9.1,8.2-10.3,13.3c-1.7,7.9,2.9,14.4,9.6,18.4c7.4,4.5,16.4,6.9,25.1,8.6l0.1,0.2c0.1-0.1,0.1-0.1,0.1-0.2
				c0.1,0,0.1,0,0.2,0l0-0.3c5.9-6.7,11.6-14,14.8-22.1C219,120,218.7,112,212.6,106.8L212.6,106.8z"/>
			<path class="st3" d="M201,153.2c-0.1,0-0.3,0-0.4,0c-0.5-0.1-1-0.2-1.4-0.5c-8.2-1.7-17.4-4.1-25.3-8.8
				c-8.8-5.3-13-13.6-11.2-22.2c1.4-6.5,5.5-14.1,12.8-16c3.6-0.9,7.4-0.6,11.1,0.9c2.1-3.5,4.9-6.1,8.3-7.5
				c6.9-2.9,14.7,0.6,19.8,4.9c0,0,0.1,0,0.1,0.1c6.6,5.7,8.3,14.8,4.5,24.4c-3.4,8.6-9.3,16.1-14.8,22.4c-0.2,0.5-0.5,0.9-0.8,1.2
				c-0.4,0.4-0.9,0.7-1.4,0.8C201.9,153.1,201.5,153.2,201,153.2z M179.6,112.3c-0.8,0-1.5,0.1-2.3,0.3c-4.2,1.1-6.8,6.4-7.7,10.7
				c-1.7,7.9,5,12.9,8,14.7c6.8,4.1,15,6.3,22.3,7.8c4.9-5.7,10.1-12.4,13-19.7c1.3-3.2,3.5-11.2-2.5-16.5c0,0,0,0-0.1-0.1
				c-3.3-2.8-8.6-5.5-12.6-3.8c-3.3,1.4-5.2,4.6-6.2,7c-0.4,0.9-1.2,1.7-2.1,2c-1,0.3-2,0.2-2.9-0.3
				C184.8,113.3,182.3,112.3,179.6,112.3z"/>
		</g>
		<g>
			<path class="st6" d="M137,134.1c-4-3.4-10.6-6.8-16.2-4.4c-3.8,1.6-6.5,5-8.1,8.9c-3.7-2.2-7.8-3.2-11.9-2.2
				c-5.9,1.5-9.2,8.2-10.3,13.3c-1.7,7.9,2.9,14.4,9.6,18.4c7.4,4.5,16.4,6.9,25.2,8.6l0.1,0.2c0.1-0.1,0.1-0.1,0.1-0.2
				c0.1,0,0.1,0,0.2,0l0-0.3c5.9-6.7,11.6-14,14.8-22.1C143.4,147.4,143.1,139.3,137,134.1L137,134.1z"/>
			<path class="st3" d="M125.4,180.5c-0.1,0-0.2,0-0.4,0c-0.5-0.1-1-0.2-1.4-0.5c-8.2-1.7-17.4-4.1-25.3-8.8
				c-8.8-5.4-13-13.6-11.2-22.2c1.4-6.5,5.5-14.1,12.8-16c3.6-0.9,7.4-0.6,11.1,0.9c2.1-3.5,4.9-6.1,8.3-7.5
				c6.9-2.9,14.7,0.6,19.8,4.9c0,0,0.1,0,0.1,0.1c6.6,5.7,8.3,14.8,4.5,24.4c-3.4,8.6-9.3,16.1-14.8,22.4c-0.2,0.5-0.5,0.9-0.9,1.2
				c-0.4,0.4-0.9,0.7-1.4,0.8C126.3,180.5,125.8,180.5,125.4,180.5z M104,139.6c-0.8,0-1.5,0.1-2.3,0.3c-4.2,1.1-6.8,6.4-7.7,10.7
				c-1.7,7.9,5,12.9,8,14.7c6.8,4.1,15,6.3,22.3,7.8c4.9-5.7,10.1-12.4,13-19.7c1.3-3.2,3.5-11.2-2.5-16.5c0,0,0,0-0.1,0
				c-3.3-2.8-8.6-5.5-12.6-3.8c-3.3,1.4-5.2,4.6-6.2,7c-0.4,0.9-1.2,1.7-2.1,2c-1,0.3-2,0.2-2.9-0.3
				C109.1,140.6,106.6,139.6,104,139.6z"/>
		</g>
	</g>
</g>
</svg>
