<?xml version="1.0" encoding="UTF-8"?>
<svg id="Layer_2" data-name="Layer 2" xmlns="http://www.w3.org/2000/svg" viewBox="0 0 288.36 288.07">
  <defs>
    <style>
      .cls-1 {
        fill: #fff;
      }

      .cls-2 {
        fill: #e2e2e2;
      }

      .cls-3 {
        fill: #95e0e8;
      }

      .cls-4 {
        fill: #b2b8c4;
      }

      .cls-5 {
        fill: #e27fa3;
      }

      .cls-6 {
        fill: #70838e;
      }

      .cls-7 {
        fill: #95a1b3;
      }

      .cls-8 {
        fill: #5f5c5d;
      }
    </style>
  </defs>
  <g id="background">
    <g>
      <path class="cls-3" d="M255.27,144.03c0,11.13-.67,21.26-2.04,30.47-8.7,59.53-45.45,80.47-109.05,80.47-41,0-70.84-8.71-89.21-30.85-14.53-17.52-21.88-43.43-21.88-80.09,0-40.14,8.82-67.42,26.23-84.86,18.56-18.63,46.95-26.08,84.86-26.08,59.68,0,95.73,18.45,107.15,69.93,2.62,11.86,3.94,25.48,3.94,41.01Z"/>
      <ellipse class="cls-4" cx="192.79" cy="229.37" rx="36.17" ry="32.25"/>
      <g>
        <path class="cls-4" d="M191.48,18.09c-12.24,9.67-24.5,23.55-31.64,32.15-8.68,1.33-19.49,4.25-31.64,8.29-12.19,3.93-22.63,7.98-30.41,12.05-20.08-5.01-64.92-14.18-72.89,1.56-7.91,15.63,16.12,43.54,27.74,55.68-3.64,16.46-1.67,32.54,2.59,45.54,3.69,11.24,8.71,22.03,15.08,32.38,12.44,20.19,35.29,31.34,58.84,28.57,18.19-2.14,35.81-6.01,52.87-11.6,17.06-5.59,33.55-12.91,49.47-21.95,20.62-11.72,32.43-34.23,30.5-57.87-.99-12.11-3.33-23.78-7.02-35.02-4.26-13-12.19-27.12-24.87-38.23,1.08-8.32,2.34-21.67,1.37-33.92-.97-12.26-29.61-25.85-40.01-17.63Z"/>
        <g>
          <path class="cls-7" d="M142.91,62.61c6.1,18.61,5.63,35.46-1.03,37.64-6.67,2.19-17.03-11.11-23.13-29.72-.84-2.55-1.55-5.06-2.13-7.51,7.73-2.93,15.59-5.5,23.56-7.71,.98,2.31,1.89,4.76,2.72,7.3Z"/>
          <g>
            <path class="cls-7" d="M114.97,65c6.1,18.6,5.64,35.46-1.03,37.64-6.41,2.1-16.29-10.2-22.45-27.75,3.79-2.44,7.83-4.62,12.07-6.5,3.64-1.6,7.3-3.14,11-4.57,.15,.39,.27,.78,.4,1.18Z"/>
            <path class="cls-7" d="M167.41,49.82c5.47,17.85,4.83,33.7-1.61,35.81-6.67,2.19-17.02-11.13-23.11-29.73-.13-.4-.26-.78-.37-1.19,4.39-1.19,8.84-2.25,13.31-3.21,3.94-.85,7.87-1.4,11.79-1.69Z"/>
          </g>
        </g>
        <path class="cls-6" d="M162.23,52.23l-4.78-3.96c7.95-9.59,19.98-23.03,32.1-32.61l3.85,4.87c-12.31,9.73-24.81,24.04-31.17,31.71Z"/>
        <path class="cls-1" d="M215,41.53s3.35,3.73,5.27,8.51c1.78,4.42,.19,8.76-2.9,11.37-10.27-6.05-21.78-9.98-33.8-11.39-.7-2.48-.47-5.23,.93-7.69,5.62-9.91,14.12-21.39,23-20.77,15.48,1.1,7.49,19.97,7.49,19.97Z"/>
        <path class="cls-1" d="M48.17,96.22s-.49,4.99,.79,9.98c1.18,4.62,5.03,7.17,9.07,7.44,4.69-10.96,11.65-20.94,20.49-29.19-.9-2.42-2.72-4.49-5.31-5.65-10.4-4.66-24.04-8.88-30.83-3.12-11.82,10.05,5.78,20.53,5.78,20.53Z"/>
        <g>
          <path class="cls-6" d="M265.1,142.65c-1-12.28-3.41-24.3-7.16-35.74-3.18-9.71-10.18-25.43-24.54-38.51,1.09-8.91,2.09-21.35,1.17-32.92l-6.19,.49c.75,9.44,.15,19.57-.7,27.69-3.61-2.73-7.6-5.28-12.03-7.55-1.53-.78-3.4-.18-4.18,1.35-.78,1.53-.18,3.4,1.35,4.18,24.82,12.72,35.22,35.04,39.21,47.22,3.6,10.97,5.91,22.52,6.87,34.31,.9,11.02-1.33,21.99-6.45,31.71-5.12,9.73-12.9,17.76-22.49,23.21-1.49,.85-2.01,2.74-1.17,4.23,.57,1.01,1.62,1.57,2.7,1.57,.52,0,1.05-.13,1.53-.41,10.62-6.04,19.24-14.93,24.92-25.71,5.67-10.77,8.14-22.9,7.14-35.1Z"/>
          <path class="cls-6" d="M183.9,46.89c-5.35-.57-10.98-.74-16.72-.52-9.25,.37-22.69,3.47-39.93,9.21-12.36,3.99-22.34,7.92-29.84,11.72-10.84-2.66-26.27-5.9-40.41-6.82-19.34-1.25-30.74,2.1-34.87,10.25-8.33,16.45,12.87,42.91,27.13,58.02-3.83,19.04-.16,35.85,3.03,45.57,3.75,11.44,8.93,22.55,15.39,33.04,6.42,10.42,15.6,18.74,26.54,24.06,8.71,4.23,18.2,6.41,27.82,6.41,2.49,0,4.99-.15,7.49-.44,18.31-2.16,36.3-6.11,53.47-11.74,1.63-.53,2.52-2.29,1.98-3.92-.53-1.63-2.29-2.52-3.92-1.98-16.78,5.5-34.37,9.36-52.26,11.47-10.95,1.29-21.98-.58-31.87-5.39-9.88-4.8-18.17-12.32-23.97-21.73-6.21-10.07-11.18-20.74-14.77-31.72-3.99-12.17-8.82-36.32,3.64-61.26,.77-1.53,.15-3.4-1.39-4.16-1.53-.77-3.4-.14-4.16,1.39-2.22,4.45-3.93,8.87-5.22,13.22-19.29-21.14-28-38.9-23.39-48.03,4.46-8.81,27.91-9.38,61.9-1.71-4.75,3.21-9.17,6.68-13.15,10.3-1.27,1.16-1.36,3.12-.2,4.38,.61,.67,1.45,1.01,2.29,1.01,.75,0,1.5-.27,2.09-.81,3.76-3.43,7.95-6.71,12.46-9.76,7.19-4.85,19.34-10.05,36.12-15.47,16.71-5.56,29.58-8.56,38.24-8.91,5.44-.22,10.77-.05,15.82,.49,1.71,.18,3.23-1.05,3.41-2.76,.18-1.7-1.05-3.23-2.76-3.41Z"/>
        </g>
        <ellipse class="cls-8" cx="119.32" cy="159.73" rx="17.35" ry="19.67" transform="translate(-43.82 45.12) rotate(-18.15)"/>
        <path class="cls-8" d="M213.85,128.74c-3.38-10.32-13.51-16.28-22.61-13.29-9.1,2.98-13.74,13.77-10.35,24.1,3.38,10.32,13.51,16.28,22.61,13.29,9.1-2.98,13.74-13.77,10.35-24.1Z"/>
        <g>
          <g>
            <path class="cls-7" d="M216.32,151.75c-1.42,0-2.75-.91-3.22-2.33-.58-1.78,.39-3.69,2.16-4.27l17.7-5.8c1.78-.58,3.69,.39,4.27,2.16,.58,1.78-.39,3.69-2.16,4.27l-17.7,5.8c-.35,.12-.71,.17-1.06,.17Z"/>
            <path class="cls-7" d="M236.26,163.63s-.09,0-.13,0l-16.24-.62c-1.87-.07-3.33-1.64-3.26-3.51,.07-1.87,1.64-3.32,3.51-3.26l16.24,.62c1.87,.07,3.33,1.64,3.26,3.51-.07,1.82-1.57,3.26-3.38,3.26Z"/>
          </g>
          <g>
            <path class="cls-7" d="M92.67,192.29c-1.42,0-2.75-.91-3.22-2.33-.58-1.78,.39-3.69,2.16-4.27l17.7-5.8c1.78-.58,3.69,.39,4.27,2.16,.58,1.78-.39,3.69-2.16,4.27l-17.7,5.8c-.35,.12-.71,.17-1.06,.17Z"/>
            <path class="cls-7" d="M101.34,207.87c-1,0-1.98-.44-2.65-1.28-1.16-1.46-.92-3.59,.54-4.76l12.73-10.11c1.46-1.16,3.59-.92,4.76,.54,1.16,1.46,.92,3.59-.54,4.76l-12.73,10.11c-.62,.49-1.37,.74-2.1,.74Z"/>
          </g>
        </g>
        <g>
          <path class="cls-1" d="M166.51,99.43c-1.31,0-2.52-.83-2.95-2.14-.53-1.63,.35-3.38,1.98-3.92l9.29-3.04c1.63-.53,3.38,.35,3.92,1.98,.53,1.63-.35,3.38-1.98,3.92l-9.29,3.04c-.32,.11-.65,.16-.97,.16Z"/>
          <path class="cls-1" d="M105.38,119.47c-1.31,0-2.52-.83-2.95-2.14-.53-1.63,.35-3.38,1.98-3.92l9.29-3.04c1.63-.53,3.38,.35,3.92,1.98,.53,1.63-.35,3.38-1.98,3.92l-9.29,3.04c-.32,.11-.65,.16-.97,.16Z"/>
        </g>
        <g>
          <path class="cls-6" d="M180.52,168.19c.93,2.63,1.38,5.29,1.37,7.82,.02,7-3.33,13.05-8.98,15.06-5.67,2.01-12.08-.58-16.47-6.03-1.6-1.96-2.93-4.31-3.86-6.94-3.51-9.91-.1-20.16,7.61-22.89,7.7-2.73,16.81,3.07,20.33,12.98Z"/>
          <path class="cls-5" d="M181.9,176.01c.02,7-3.33,13.05-8.98,15.06-5.67,2.01-12.08-.58-16.47-6.03-.02-7,3.33-13.05,8.99-15.06,5.65-2.01,12.06,.59,16.46,6.03Z"/>
          <path class="cls-6" d="M183.44,167.15c-1.93-5.44-5.42-9.98-9.84-12.8-3.67-2.34-7.62-3.28-11.41-2.78l-1.87-5.28,2.01-.71c1.62-.57,2.46-2.35,1.89-3.96-.57-1.62-2.35-2.46-3.96-1.89l-9.86,3.5c-1.62,.57-2.46,2.35-1.89,3.96,.45,1.27,1.65,2.07,2.93,2.07,.34,0,.69-.06,1.04-.18l2.01-.71,1.87,5.28c-7.32,4.53-10.32,15.22-6.68,25.48,3.37,9.5,11.4,15.7,19.34,15.7,1.67,0,3.33-.27,4.95-.85,4.65-1.65,8.18-5.45,9.92-10.7,1.65-4.97,1.5-10.71-.43-16.14Zm-5.46,14.18c-1.13,3.39-3.3,5.81-6.11,6.81-6.09,2.16-13.43-2.81-16.36-11.08-2.93-8.27-.37-16.76,5.72-18.91,.94-.33,1.92-.5,2.93-.5,2,0,4.1,.65,6.1,1.93,3.26,2.08,5.86,5.5,7.33,9.64,1.47,4.14,1.61,8.44,.39,12.11Z"/>
        </g>
        <path class="cls-1" d="M207.76,124.38c1.46,4.47-.97,9.28-5.44,10.74-4.47,1.46-9.28-.97-10.74-5.44-1.46-4.47,.97-9.28,5.44-10.74,4.47-1.46,9.28,.97,10.74,5.44Z"/>
        <path class="cls-1" d="M199.72,142.74c.92,2.8-.61,5.82-3.41,6.74-2.8,.92-5.82-.61-6.74-3.41-.92-2.8,.61-5.82,3.41-6.74,2.8-.92,5.82,.61,6.74,3.41Z"/>
        <path class="cls-1" d="M130.02,150.74c1.46,4.47-.97,9.28-5.44,10.74-4.47,1.46-9.28-.97-10.74-5.44s.97-9.28,5.44-10.74c4.47-1.46,9.28,.97,10.74,5.44Z"/>
        <path class="cls-1" d="M120.82,168.6c.92,2.8-.61,5.82-3.41,6.74-2.8,.92-5.82-.61-6.74-3.41-.92-2.8,.61-5.82,3.41-6.74,2.8-.92,5.82,.61,6.74,3.41Z"/>
      </g>
      <path class="cls-4" d="M144.18,254.97c-7.35-24.9-15.99-56.52-1.87-63.22,14.13-6.7,39.23,60.13,39.23,60.13l-37.37,3.1Z"/>
      <path class="cls-4" d="M220.02,236.54c-12.62-34.14-19.85-59.47-9.93-68.19,9.93-8.72,35.94,34.1,35.94,34.1l-26.02,34.1Z"/>
      <path class="cls-6" d="M144.18,258.07c-1.34,0-2.58-.87-2.98-2.23-8.78-29.74-16.03-59.4-.22-66.91,2.13-1.01,4.54-1.03,6.96-.04,6.79,2.75,14.77,13.79,24.4,33.76,6.88,14.26,12.05,27.99,12.1,28.13,.6,1.6-.21,3.39-1.81,4-1.6,.6-3.39-.21-4-1.81-.05-.13-5.14-13.64-11.9-27.65-11.53-23.91-18.18-29.47-21.12-30.66-1.05-.42-1.61-.28-1.98-.1-12.34,5.86-2.03,40.78,3.51,59.54,.49,1.64-.45,3.37-2.1,3.86-.29,.09-.59,.13-.88,.13Z"/>
      <path class="cls-6" d="M220.02,239.65c-1.26,0-2.45-.78-2.91-2.03-14.06-38.04-20.05-61.94-9.06-71.6,1.8-1.58,4.08-2.22,6.58-1.84,5.7,.87,12.99,7.24,22.28,19.45,6.55,8.61,11.57,16.85,11.78,17.2,.89,1.46,.42,3.37-1.04,4.26-1.46,.89-3.37,.42-4.26-1.04-7.56-12.44-22.32-32.61-29.7-33.74-.84-.13-1.24,.1-1.54,.36-9.17,8.05,.76,37.66,10.79,64.78,.59,1.61-.23,3.39-1.83,3.99-.35,.13-.72,.19-1.08,.19Z"/>
      <path class="cls-1" d="M247.72,35.51C224.04,13.41,191.14,3.11,144.19,3.11S64.32,13.39,40.64,35.51C15.37,59.09,3.11,94.58,3.11,144.04s12.27,84.94,37.53,108.51c23.68,22.12,56.58,32.41,103.55,32.41s79.85-10.29,103.53-32.41c25.27-23.57,37.54-59.07,37.54-108.51s-12.27-84.95-37.54-108.53Zm-5.73,175.68h0c-16.84,31.75-49.62,43.77-97.82,43.77-1.57,0-3.13-.02-4.68-.05-70.35-1.18-106.41-29.66-106.41-110.9S70.76,33.08,144.18,33.08s111.09,27.92,111.09,110.94c0,28.52-4.45,50.55-13.27,67.17Z"/>
      <path class="cls-2" d="M144.18,288.07c-47.8,0-81.37-10.56-105.66-33.24C12.6,230.63,0,194.39,0,144.03S12.6,57.44,38.52,33.24C62.81,10.56,96.39,0,144.18,0s81.37,10.56,105.66,33.24c25.92,24.2,38.52,60.44,38.52,110.79s-12.6,86.59-38.52,110.79c-24.29,22.68-57.87,33.24-105.66,33.24Zm0-281.86c-46.13,0-78.35,10.03-101.43,31.57C18.16,60.74,6.21,95.49,6.21,144.03s11.95,83.3,36.55,106.25c23.07,21.54,55.3,31.57,101.43,31.57s78.35-10.03,101.43-31.57c24.59-22.96,36.55-57.71,36.55-106.25s-11.95-83.3-36.55-106.25c-23.07-21.54-55.3-31.57-101.43-31.57Z"/>
      <path class="cls-2" d="M144.34,273.91c-.05,0-.11,0-.16,0h0c-2.18,0-3.95-1.77-3.95-3.95h0c0-2.18,1.77-3.95,3.95-3.95h.3c2.18,0,3.95,1.76,3.96,3.94h0c0,2.18-1.77,3.95-3.95,3.96h0c-.05,0-.1,0-.15,0Zm-28.94-1.56h0c-2.17-.25-3.72-2.22-3.46-4.38h0c.25-2.17,2.22-3.72,4.38-3.46h0c2.17,.25,3.72,2.22,3.47,4.38h0c-.24,2.01-1.95,3.49-3.92,3.49h0c-.15,0-.31-.01-.46-.03Zm53.5-3.49c-.26-2.16,1.29-4.13,3.45-4.39h0c2.17-.26,4.13,1.29,4.39,3.45h0c.26,2.17-1.29,4.14-3.45,4.39h0c-.16,.02-.32,.03-.47,.03h0c-1.97,0-3.68-1.47-3.92-3.48Zm-81.98-2.39h0c-2.08-.66-3.24-2.87-2.58-4.95h0c.65-2.08,2.87-3.24,4.95-2.58h0c2.08,.65,3.24,2.87,2.58,4.95h0c-.53,1.69-2.09,2.77-3.77,2.77h0c-.39,0-.79-.06-1.19-.18Zm109.88-2.67c-.66-2.08,.49-4.3,2.57-4.96h0c2.08-.66,4.3,.49,4.96,2.57h0c.66,2.08-.49,4.3-2.57,4.96h0c-.39,.12-.8,.18-1.2,.18h0c-1.68,0-3.23-1.07-3.76-2.75Zm-136.5-9.77c-1.82-1.2-2.32-3.66-1.12-5.47h0c1.2-1.82,3.65-2.32,5.47-1.12h0c1.82,1.2,2.33,3.66,1.12,5.47h0c-.76,1.15-2.02,1.78-3.3,1.78h0c-.75,0-1.5-.21-2.17-.65Zm162.57-1.28c-1.21-1.82-.72-4.27,1.1-5.47h0c1.82-1.21,4.27-.72,5.48,1.1h0c1.21,1.82,.71,4.27-1.11,5.47h0c-.67,.45-1.43,.67-2.18,.67h0c-1.28,0-2.53-.62-3.29-1.77Zm-184.27-18.76h0c-1.34-1.72-1.03-4.2,.69-5.54h0c1.72-1.34,4.2-1.03,5.54,.69h0c1.34,1.73,1.03,4.2-.69,5.55h0c-.72,.56-1.57,.83-2.42,.83h0c-1.18,0-2.34-.52-3.12-1.53Zm205.83,.46c-1.73-1.33-2.05-3.82-.72-5.54h0c1.33-1.73,3.81-2.04,5.54-.71h0c1.73,1.33,2.05,3.81,.72,5.54h0c-.78,1.01-1.95,1.54-3.13,1.54h0c-.84,0-1.69-.27-2.41-.82ZM24.28,208.28c-.78-2.04,.23-4.32,2.26-5.11h0c2.04-.78,4.32,.23,5.11,2.26h0c.78,2.04-.23,4.32-2.26,5.11h0c-.47,.18-.95,.27-1.42,.27h0c-1.59,0-3.08-.96-3.68-2.53Zm234.82,1.98c-2.04-.78-3.06-3.06-2.28-5.1h0c.78-2.04,3.06-3.06,5.1-2.28h0c2.04,.78,3.06,3.06,2.27,5.1h0c-.6,1.57-2.1,2.54-3.69,2.54h0c-.47,0-.95-.08-1.41-.26ZM16.84,180.1c-.36-2.15,1.11-4.18,3.26-4.53h0c2.16-.36,4.19,1.11,4.54,3.26h0c.35,2.16-1.11,4.19-3.26,4.54h0c-.22,.03-.43,.05-.64,.05h0c-1.9,0-3.58-1.37-3.89-3.31Zm250.21,2.96c-2.16-.35-3.62-2.38-3.27-4.53h0c.35-2.16,2.38-3.62,4.53-3.27h0c2.16,.34,3.62,2.38,3.27,4.53h0c-.31,1.94-1.99,3.32-3.89,3.32h0c-.21,0-.42-.02-.63-.05ZM14.24,151.32c-.06-2.18,1.66-4,3.84-4.06h0c2.18-.06,4,1.66,4.06,3.85h0c.06,2.18-1.66,4-3.84,4.05h-.11c-2.13,0-3.89-1.7-3.95-3.84Zm255.84,3.53c-2.18-.05-3.9-1.87-3.85-4.05h0c.06-2.18,1.87-3.91,4.05-3.85h0c2.18,.06,3.91,1.87,3.85,4.05h0c-.05,2.14-1.81,3.85-3.94,3.85h0s-.07,0-.1,0ZM18.63,126.78c-2.18-.19-3.79-2.1-3.59-4.28h0c.19-2.17,2.1-3.79,4.28-3.59h0c2.17,.19,3.78,2.1,3.59,4.28h0c-.18,2.05-1.91,3.61-3.93,3.61h0c-.11,0-.23,0-.34-.01Zm246.8-3.89c-.19-2.18,1.41-4.09,3.59-4.28h0c2.17-.19,4.09,1.41,4.28,3.58h0c.2,2.18-1.41,4.09-3.58,4.28h0c-.12,.01-.24,.02-.36,.02h0c-2.02,0-3.75-1.55-3.93-3.6ZM22.62,98.7c-2.11-.55-3.38-2.7-2.83-4.81h0c.55-2.11,2.7-3.38,4.81-2.83h0c2.12,.55,3.38,2.7,2.83,4.81h0c-.46,1.78-2.06,2.96-3.82,2.96h0c-.33,0-.66-.04-.99-.13Zm238.24-3.12c-.55-2.11,.71-4.27,2.82-4.82h0c2.11-.55,4.27,.71,4.82,2.82h0c.55,2.11-.71,4.27-2.82,4.82h0c-.34,.09-.67,.13-1,.13h0c-1.75,0-3.35-1.17-3.81-2.95ZM31.96,71.95c-1.91-1.05-2.61-3.45-1.56-5.37h0c1.06-1.91,3.45-2.61,5.37-1.56h0c1.91,1.06,2.61,3.45,1.56,5.37h0c-.72,1.31-2.07,2.05-3.46,2.05h0c-.64,0-1.3-.16-1.9-.49Zm218.95-1.82c-1.06-1.91-.37-4.31,1.54-5.37h0c1.91-1.06,4.31-.36,5.37,1.55h0c1.06,1.91,.37,4.31-1.54,5.37h0c-.61,.34-1.26,.5-1.91,.5h0c-1.39,0-2.74-.73-3.46-2.04ZM48.29,48.86c-1.48-1.6-1.39-4.1,.21-5.58h0c1.6-1.48,4.1-1.39,5.59,.21h0c1.48,1.6,1.38,4.1-.22,5.59h0c-.76,.7-1.72,1.04-2.68,1.04h0c-1.07,0-2.13-.42-2.9-1.26Zm185.99,.02c-1.61-1.47-1.72-3.97-.24-5.58h0c1.48-1.61,3.98-1.71,5.58-.24h0c1.61,1.47,1.72,3.97,.24,5.58h0c-.78,.85-1.85,1.28-2.91,1.28h0c-.95,0-1.91-.34-2.67-1.04ZM71.14,32.18c-.92-1.98-.06-4.33,1.92-5.24h0c1.98-.92,4.33-.06,5.24,1.92h0c.92,1.98,.06,4.33-1.92,5.24h0c-.54,.25-1.1,.37-1.66,.37h0c-1.49,0-2.92-.85-3.58-2.29Zm140.57,1.8h0c-1.99-.91-2.85-3.26-1.94-5.24h0c.91-1.98,3.26-2.85,5.24-1.94h0c1.98,.91,2.84,3.26,1.93,5.24h0c-.67,1.44-2.09,2.3-3.59,2.3h0c-.55,0-1.12-.12-1.65-.36Zm-113.9-11.31c-.43-2.14,.95-4.22,3.08-4.66h0c2.14-.43,4.23,.95,4.66,3.08h0c.44,2.14-.94,4.23-3.08,4.66h0c-.27,.06-.53,.08-.8,.08h0c-1.83,0-3.48-1.29-3.87-3.16Zm87.77,3.02c-2.14-.43-3.52-2.51-3.09-4.65h0c.43-2.14,2.52-3.52,4.66-3.09h0c2.14,.43,3.52,2.52,3.09,4.66h0c-.38,1.87-2.03,3.17-3.87,3.17h0c-.25,0-.52-.02-.78-.08Zm-59.69-7.03c-.11-2.18,1.56-4.03,3.74-4.15h0c2.18-.12,4.04,1.56,4.15,3.74h0c.11,2.18-1.56,4.03-3.74,4.15h0c-.07,0-.14,0-.21,0h0c-2.08,0-3.83-1.64-3.94-3.75Zm32.12,3.72c-2.18-.11-3.85-1.97-3.74-4.15h0c.11-2.18,1.97-3.85,4.15-3.74h0c2.18,.11,3.85,1.97,3.74,4.15h0c-.11,2.11-1.85,3.75-3.94,3.75h0c-.07,0-.14,0-.21,0Z"/>
      <path class="cls-2" d="M144.18,258.07c-1.59,0-3.18-.02-4.74-.05-38.04-.64-64-9-81.7-26.31-18.68-18.27-27.76-46.95-27.76-87.68s9.49-70.66,29-88.87c18.4-17.17,45.47-25.17,85.2-25.17s66.8,8,85.2,25.17c19.51,18.21,28.99,47.28,28.99,88.87,0,28.79-4.43,51.19-13.54,68.45-.03,.06-.06,.13-.09,.19-8.62,16.24-21.27,27.74-38.67,35.18-16.11,6.88-36.36,10.23-61.89,10.23Zm0-221.88c-38.06,0-63.78,7.47-80.96,23.5-18.19,16.98-27.03,44.56-27.03,84.33s8.47,66.2,25.89,83.25c16.49,16.13,41.11,23.93,77.47,24.54,1.53,.03,3.08,.04,4.63,.04,24.67,0,44.12-3.18,59.45-9.73,15.99-6.83,27.62-17.37,35.54-32.21,.03-.06,.06-.12,.09-.18,8.69-16.37,12.91-37.86,12.91-65.71,0-39.77-8.84-67.36-27.02-84.33-17.18-16.04-42.9-23.5-80.97-23.5Zm97.82,175.02h0Z"/>
      <path class="cls-1" d="M230.1,89.4c-1.15,0-2.25-.64-2.79-1.75-1.74-3.58-3.77-6.91-6.01-9.89-1.03-1.37-.76-3.32,.61-4.35,1.37-1.03,3.31-.76,4.35,.61,2.48,3.3,4.71,6.97,6.63,10.9,.75,1.54,.11,3.4-1.43,4.15-.44,.21-.9,.31-1.36,.31Z"/>
      <path class="cls-1" d="M233.06,197.47c-.35,0-.71-.06-1.06-.19-1.61-.59-2.44-2.37-1.86-3.98,4.73-13.02,7.03-29.14,7.03-49.28,0-16.25-1.4-29.62-4.29-40.86-.43-1.66,.57-3.35,2.24-3.78,1.66-.43,3.35,.58,3.78,2.24,3.02,11.76,4.48,25.63,4.48,42.41,0,20.87-2.42,37.69-7.4,51.4-.46,1.26-1.65,2.05-2.92,2.05Z"/>
    </g>
  </g>
</svg>