<?xml version="1.0" encoding="UTF-8"?>
<svg id="Layer_2" data-name="Layer 2" xmlns="http://www.w3.org/2000/svg" viewBox="0 0 886.85 1690.89">
  <defs>
    <style>
      .cls-1 {
        fill: #fcffff;
      }

      .cls-2 {
        fill: none;
        stroke: #fcffff;
        stroke-linecap: round;
        stroke-linejoin: round;
        stroke-width: 2px;
      }
    </style>
  </defs>
  <g id="background">
    <g id="OBJECTS">
      <g id="STARS">
        <polygon class="cls-1" points="452.5 103.87 459.41 113.7 470.34 110.16 463.69 119.78 470.6 129.61 459.58 125.72 452.92 135.34 452.76 123.32 441.73 119.43 452.66 115.89 452.5 103.87"/>
        <polygon class="cls-1" points="320.52 164.32 314.51 174.73 322.32 183.15 310.8 181.17 304.79 191.59 303.67 179.94 292.15 177.96 302.98 172.75 301.87 161.11 309.68 169.53 320.52 164.32"/>
        <polygon class="cls-1" points="366.35 724.33 372.84 734.45 383.91 731.38 376.85 740.7 383.34 750.82 372.49 746.46 365.43 755.79 365.78 743.77 354.93 739.41 366 736.34 366.35 724.33"/>
        <polygon class="cls-1" points="604.09 224.96 603.77 236.98 614.65 240.66 603.57 244.41 603.25 256.43 596.73 246.72 585.65 250.47 592.69 240.73 586.16 231.03 597.04 234.71 604.09 224.96"/>
        <path class="cls-2" d="M676.03,418.5c0-2.66,2.15-4.81,4.81-4.81s4.81,2.15,4.81,4.81-2.15,4.81-4.81,4.81-4.81-2.15-4.81-4.81Z"/>
        <path class="cls-2" d="M680.84,5.81c0-2.66,2.15-4.81,4.81-4.81s4.81,2.15,4.81,4.81-2.15,4.81-4.81,4.81-4.81-2.15-4.81-4.81Z"/>
        <path class="cls-2" d="M222.3,71.87c0-2.66,2.15-4.81,4.81-4.81s4.81,2.15,4.81,4.81-2.15,4.81-4.81,4.81-4.81-2.15-4.81-4.81Z"/>
        <path class="cls-2" d="M45.17,196.4c0-2.66,2.15-4.81,4.81-4.81s4.81,2.15,4.81,4.81-2.15,4.81-4.81,4.81-4.81-2.15-4.81-4.81Z"/>
        <path class="cls-2" d="M776.94,590.17c0-2.66,2.15-4.81,4.81-4.81s4.81,2.15,4.81,4.81-2.15,4.81-4.81,4.81-4.81-2.15-4.81-4.81Z"/>
        <path class="cls-1" d="M74.84,669.22c1.54,7.46-1.96,15.69-8.4,19.76,7.23,5.04,12.21,13.18,13.42,21.91-2.17-8.52,1.87-18.23,9.43-22.71-10.93-1.93-11.9-11.32-14.45-18.96Z"/>
        <path class="cls-1" d="M856.8,26.65c1.54,7.46-1.96,15.69-8.4,19.76,7.23,5.04,12.21,13.18,13.42,21.91-2.17-8.52,1.87-18.23,9.43-22.71-10.93-1.93-11.9-11.32-14.45-18.96Z"/>
        <path class="cls-1" d="M5.51,350.34c.81,3.44-1.03,7.25-4.42,9.13,3.8,2.33,6.43,6.09,7.06,10.12-1.14-3.93,.98-8.42,4.96-10.49-5.75-.89-6.26-5.23-7.61-8.76Z"/>
        <path class="cls-1" d="M879.24,311.07c.81,3.44-1.03,7.25-4.42,9.13,3.8,2.33,6.43,6.09,7.06,10.12-1.14-3.93,.98-8.42,4.96-10.49-5.75-.89-6.26-5.23-7.61-8.76Z"/>
        <path class="cls-2" d="M48.85,23.15c1.23,10.64,8.05,20.46,17.59,25.33-8.39,5.07-14.52,13.73-16.51,23.33-1.08-8.96-7.78-16.99-16.41-19.65,8.33-6.49,13.58-16.78,15.32-29.01Z"/>
        <path class="cls-2" d="M731.08,219.04c1.16,9.46,7.62,18.21,16.64,22.54-7.94,4.51-13.74,12.22-15.61,20.76-1.02-7.97-7.36-15.12-15.52-17.48,7.88-5.77,12.84-14.93,14.49-25.82Z"/>
      </g>
      <g id="STARS-2" data-name="STARS">
        <polygon class="cls-1" points="434.35 1587.02 427.44 1577.19 416.51 1580.73 423.16 1571.11 416.25 1561.28 427.27 1565.17 433.93 1555.55 434.09 1567.57 445.12 1571.46 434.19 1575 434.35 1587.02"/>
        <polygon class="cls-1" points="566.34 1526.57 572.34 1516.15 564.53 1507.73 576.05 1509.72 582.06 1499.3 583.18 1510.94 594.7 1512.93 583.87 1518.14 584.98 1529.78 577.17 1521.36 566.34 1526.57"/>
        <polygon class="cls-1" points="520.5 966.56 514.01 956.44 502.94 959.51 510 950.19 503.51 940.06 514.36 944.42 521.42 935.1 521.07 947.12 531.92 951.48 520.85 954.54 520.5 966.56"/>
        <polygon class="cls-1" points="282.77 1465.92 283.08 1453.91 272.2 1450.23 283.28 1446.48 283.6 1434.46 290.13 1444.16 301.2 1440.41 294.16 1450.16 300.69 1459.86 289.81 1456.18 282.77 1465.92"/>
        <path class="cls-2" d="M210.83,1272.39c0,2.66-2.15,4.81-4.81,4.81s-4.81-2.15-4.81-4.81,2.15-4.81,4.81-4.81,4.81,2.15,4.81,4.81Z"/>
        <path class="cls-2" d="M206.01,1685.08c0,2.66-2.15,4.81-4.81,4.81s-4.81-2.15-4.81-4.81,2.15-4.81,4.81-4.81,4.81,2.15,4.81,4.81Z"/>
        <path class="cls-2" d="M664.55,1619.02c0,2.66-2.15,4.81-4.81,4.81s-4.81-2.15-4.81-4.81,2.15-4.81,4.81-4.81,4.81,2.15,4.81,4.81Z"/>
        <path class="cls-2" d="M841.68,1494.49c0,2.66-2.15,4.81-4.81,4.81s-4.81-2.15-4.81-4.81,2.15-4.81,4.81-4.81,4.81,2.15,4.81,4.81Z"/>
        <path class="cls-2" d="M109.92,1100.72c0,2.66-2.15,4.81-4.81,4.81s-4.81-2.15-4.81-4.81,2.15-4.81,4.81-4.81,4.81,2.15,4.81,4.81Z"/>
        <path class="cls-1" d="M812.01,1021.67c-1.54-7.46,1.96-15.69,8.4-19.76-7.23-5.04-12.21-13.18-13.42-21.91,2.17,8.52-1.87,18.23-9.43,22.71,10.93,1.93,11.9,11.32,14.45,18.96Z"/>
        <path class="cls-1" d="M30.05,1664.24c-1.54-7.46,1.96-15.69,8.4-19.76-7.23-5.04-12.21-13.18-13.42-21.91,2.17,8.52-1.87,18.23-9.43,22.71,10.93,1.93,11.9,11.32,14.45,18.96Z"/>
        <path class="cls-1" d="M881.34,1340.55c-.81-3.44,1.03-7.25,4.42-9.13-3.8-2.33-6.43-6.09-7.06-10.12,1.14,3.93-.98,8.42-4.96,10.49,5.75,.89,6.26,5.23,7.61,8.76Z"/>
        <path class="cls-1" d="M7.61,1379.81c-.81-3.44,1.03-7.25,4.42-9.13-3.8-2.33-6.43-6.09-7.06-10.12,1.14,3.93-.98,8.42-4.96,10.49,5.75,.89,6.26,5.23,7.61,8.76Z"/>
        <path class="cls-2" d="M838.01,1667.74c-1.23-10.64-8.05-20.47-17.59-25.33,8.39-5.07,14.52-13.73,16.51-23.33,1.08,8.96,7.78,16.99,16.41,19.65-8.33,6.49-13.58,16.78-15.32,29.01Z"/>
        <path class="cls-2" d="M155.78,1471.84c-1.16-9.46-7.62-18.21-16.64-22.54,7.94-4.51,13.74-12.22,15.61-20.76,1.02,7.97,7.36,15.12,15.52,17.48-7.88,5.77-12.84,14.93-14.49,25.82Z"/>
      </g>
    </g>
  </g>
</svg>